<svg width="1440" height="3699" viewBox="0 0 1440 3699" fill="none" xmlns="http://www.w3.org/2000/svg">
<g opacity="0.04">
<g clip-path="url(#clip0_86_8932)">
<path d="M-102.338 3426.88H-218L-99.6128 2741.49H16.5105L-0.282684 2837.68L-9.33868 2891.18L-102.338 3426.88Z" fill="#2E2E2E"/>
<path d="M132.15 3426.88H16.5104L134.876 2741.49H250.999L234.206 2837.68L225.15 2891.18L132.15 3426.88Z" fill="#2E2E2E"/>
<path d="M366.66 3426.88H250.999L369.386 2741.49H485.509L468.716 2837.68L459.66 2891.18L366.66 3426.88Z" fill="#2E2E2E"/>
<path d="M601.171 3426.88H485.509L603.897 2741.49H719.998L703.227 2837.68L694.149 2891.18L601.171 3426.88Z" fill="#2E2E2E"/>
<path d="M835.659 3426.88H719.998L838.385 2741.49H954.508L937.715 2837.68L928.659 2891.18L835.659 3426.88Z" fill="#2E2E2E"/>
<path d="M1070.17 3426.88H954.508L1072.9 2741.49H1189.02L1172.23 2837.68L1163.17 2891.18L1070.17 3426.88Z" fill="#2E2E2E"/>
<path d="M1304.66 3426.88H1189.02L1307.38 2741.49H1423.51L1406.71 2837.68L1397.66 2891.18L1304.66 3426.88Z" fill="#2E2E2E"/>
<path d="M1539.17 3426.88H1423.51L1541.89 2741.49H1658.02L1641.22 2837.68L1632.17 2891.18L1539.17 3426.88Z" fill="#2E2E2E"/>
<path d="M-102.338 4112.26H-218L-99.6128 3426.88H16.5105L-0.282684 3523.05L-9.33868 3576.55L-102.338 4112.26Z" fill="#2E2E2E"/>
<path d="M132.15 4112.26H16.5104L134.876 3426.88H250.999L234.206 3523.05L225.15 3576.55L132.15 4112.26Z" fill="#2E2E2E"/>
<path d="M366.66 4112.26H250.999L369.386 3426.88H485.509L468.716 3523.05L459.66 3576.55L366.66 4112.26Z" fill="#2E2E2E"/>
<path d="M601.171 4112.26H485.509L603.897 3426.88H719.998L703.227 3523.05L694.149 3576.55L601.171 4112.26Z" fill="#2E2E2E"/>
<path d="M835.659 4112.26H719.998L838.385 3426.88H954.508L937.715 3523.05L928.659 3576.55L835.659 4112.26Z" fill="#2E2E2E"/>
<path d="M1070.17 4112.26H954.508L1072.9 3426.88H1189.02L1172.23 3523.05L1163.17 3576.55L1070.17 4112.26Z" fill="#2E2E2E"/>
<path d="M1304.66 4112.26H1189.02L1307.38 3426.88H1423.51L1406.71 3523.05L1397.66 3576.55L1304.66 4112.26Z" fill="#2E2E2E"/>
<path d="M1539.17 4112.26H1423.51L1541.89 3426.88H1658.02L1641.22 3523.05L1632.17 3576.55L1539.17 4112.26Z" fill="#2E2E2E"/>
<path d="M-102.338 2056.12H-218L-99.6128 1370.74H16.5105L-0.282684 1466.91L-9.33868 1520.43L-102.338 2056.12Z" fill="#2E2E2E"/>
<path d="M132.15 2056.12H16.5104L134.876 1370.74H250.999L234.206 1466.91L225.15 1520.43L132.15 2056.12Z" fill="#2E2E2E"/>
<path d="M366.66 2056.12H250.999L369.386 1370.74H485.509L468.716 1466.91L459.66 1520.43L366.66 2056.12Z" fill="#2E2E2E"/>
<path d="M601.171 2056.12H485.509L603.897 1370.74H719.998L703.227 1466.91L694.149 1520.43L601.171 2056.12Z" fill="#2E2E2E"/>
<path d="M835.659 2056.12H719.998L838.385 1370.74H954.508L937.715 1466.91L928.659 1520.43L835.659 2056.12Z" fill="#2E2E2E"/>
<path d="M1070.17 2056.12H954.508L1072.9 1370.74H1189.02L1172.23 1466.91L1163.17 1520.43L1070.17 2056.12Z" fill="#2E2E2E"/>
<path d="M1304.66 2056.12H1189.02L1307.38 1370.74H1423.51L1406.71 1466.91L1397.66 1520.43L1304.66 2056.12Z" fill="#2E2E2E"/>
<path d="M1539.17 2056.12H1423.51L1541.89 1370.74H1658.02L1641.22 1466.91L1632.17 1520.43L1539.17 2056.12Z" fill="#2E2E2E"/>
<path d="M-102.338 2741.49H-218L-99.6128 2056.12H16.5105L-0.282684 2152.28L-9.33868 2205.8L-102.338 2741.49Z" fill="#2E2E2E"/>
<path d="M132.15 2741.49H16.5104L134.876 2056.12H250.999L234.206 2152.28L225.15 2205.8L132.15 2741.49Z" fill="#2E2E2E"/>
<path d="M366.66 2741.49H250.999L369.386 2056.12H485.509L468.716 2152.28L459.66 2205.8L366.66 2741.49Z" fill="#2E2E2E"/>
<path d="M601.171 2741.49H485.509L603.897 2056.12H719.998L703.227 2152.28L694.149 2205.8L601.171 2741.49Z" fill="#2E2E2E"/>
<path d="M835.659 2741.49H719.998L838.385 2056.12H954.508L937.715 2152.28L928.659 2205.8L835.659 2741.49Z" fill="#2E2E2E"/>
<path d="M1070.17 2741.49H954.508L1072.9 2056.12H1189.02L1172.23 2152.28L1163.17 2205.8L1070.17 2741.49Z" fill="#2E2E2E"/>
<path d="M1304.66 2741.49H1189.02L1307.38 2056.12H1423.51L1406.71 2152.28L1397.66 2205.8L1304.66 2741.49Z" fill="#2E2E2E"/>
<path d="M1539.17 2741.49H1423.51L1541.89 2056.12H1658.02L1641.22 2152.28L1632.17 2205.8L1539.17 2741.49Z" fill="#2E2E2E"/>
<path d="M-102.338 685.372H-218L-99.6128 0H16.5105L-0.282684 96.1645L-9.33868 149.687L-102.338 685.372Z" fill="#2E2E2E"/>
<path d="M132.15 685.372H16.5104L134.876 0H250.999L234.206 96.1645L225.15 149.687L132.15 685.372Z" fill="#2E2E2E"/>
<path d="M366.66 685.372H250.999L369.386 0H485.509L468.716 96.1645L459.66 149.687L366.66 685.372Z" fill="#2E2E2E"/>
<path d="M601.171 685.372H485.509L603.897 0H719.998L703.227 96.1645L694.149 149.687L601.171 685.372Z" fill="#2E2E2E"/>
<path d="M835.659 685.372H719.998L838.385 0H954.508L937.715 96.1645L928.659 149.687L835.659 685.372Z" fill="#2E2E2E"/>
<path d="M1070.17 685.372H954.508L1072.9 0H1189.02L1172.23 96.1645L1163.17 149.687L1070.17 685.372Z" fill="#2E2E2E"/>
<path d="M1304.66 685.372H1189.02L1307.38 0H1423.51L1406.71 96.1645L1397.66 149.687L1304.66 685.372Z" fill="#2E2E2E"/>
<path d="M1539.17 685.372H1423.51L1541.89 0H1658.02L1641.22 96.1645L1632.17 149.687L1539.17 685.372Z" fill="#2E2E2E"/>
<path d="M-102.338 1370.74H-218L-99.6128 685.372H16.5105L-0.282684 781.537L-9.33868 835.059L-102.338 1370.74Z" fill="#2E2E2E"/>
<path d="M132.15 1370.74H16.5104L134.876 685.372H250.999L234.206 781.537L225.15 835.059L132.15 1370.74Z" fill="#2E2E2E"/>
<path d="M366.66 1370.74H250.999L369.386 685.372H485.509L468.716 781.537L459.66 835.059L366.66 1370.74Z" fill="#2E2E2E"/>
<path d="M601.171 1370.74H485.509L603.897 685.372H719.998L703.227 781.537L694.149 835.059L601.171 1370.74Z" fill="#2E2E2E"/>
<path d="M835.659 1370.74H719.998L838.385 685.372H954.508L937.715 781.537L928.659 835.059L835.659 1370.74Z" fill="#2E2E2E"/>
<path d="M1070.17 1370.74H954.508L1072.9 685.372H1189.02L1172.23 781.537L1163.17 835.059L1070.17 1370.74Z" fill="#2E2E2E"/>
<path d="M1304.66 1370.74H1189.02L1307.38 685.372H1423.51L1406.71 781.537L1397.66 835.059L1304.66 1370.74Z" fill="#2E2E2E"/>
<path d="M1539.17 1370.74H1423.51L1541.89 685.372H1658.02L1641.22 781.537L1632.17 835.059L1539.17 1370.74Z" fill="#2E2E2E"/>
</g>
</g>
<defs>
<clipPath id="clip0_86_8932">
<rect width="1876.02" height="5483" fill="white" transform="translate(-218)"/>
</clipPath>
</defs>
</svg>
