<svg width="1280" height="388" viewBox="0 0 1280 388" fill="none" xmlns="http://www.w3.org/2000/svg">
<mask id="mask0_63_2" style="mask-type:alpha" maskUnits="userSpaceOnUse" x="-129" y="0" width="1538" height="810">
<mask id="mask1_63_2" style="mask-type:luminance" maskUnits="userSpaceOnUse" x="-26" y="0" width="1338" height="807">
<path d="M1311.85 0.0303345H-25.1965V806.17H1311.85V0.0303345Z" fill="white"/>
</mask>
<g mask="url(#mask1_63_2)">
<path d="M236.316 85.4821L164.098 203.294H108.193L180.491 85.4821L143.709 0.420914H199.613L236.316 85.4821Z" fill="#4ECC0A"/>
<path d="M50.7374 202.87H106.415L143.716 0H87.8152L50.7374 202.87Z" fill="#4ECC0A"/>
<path d="M400.928 85.4821L328.711 203.294H272.81L345.103 85.4821L308.321 0.420914H364.226L400.928 85.4821Z" fill="#4ECC0A"/>
<path d="M215.35 202.87H271.027L308.329 0H252.428L215.35 202.87Z" fill="#4ECC0A"/>
<path d="M71.5136 85.4821L-0.700463 203.294H-56.6053L15.6922 85.4821L-21.0898 0.420914H34.8112L71.5136 85.4821Z" fill="#4ECC0A"/>
</g>
<path d="M256.762 287.817L184.548 405.626H128.643L200.941 287.817L164.159 202.756H220.06L256.762 287.817Z" fill="#4ECC0A"/>
<path d="M71.1874 405.201H126.865L164.166 202.335H108.265L71.1874 405.201Z" fill="#4ECC0A"/>
<path d="M421.375 287.817L349.161 405.626H293.256L365.553 287.817L328.771 202.756H384.672L421.375 287.817Z" fill="#4ECC0A"/>
<mask id="mask2_63_2" style="mask-type:luminance" maskUnits="userSpaceOnUse" x="-26" y="0" width="1338" height="807">
<path d="M1311.85 0.0303345H-25.1965V806.17H1311.85V0.0303345Z" fill="white"/>
</mask>
<g mask="url(#mask2_63_2)">
<path d="M235.8 405.201H291.477L328.779 202.335H272.878L235.8 405.201Z" fill="#4ECC0A"/>
<path d="M91.9636 287.817L19.7496 405.626H-36.1553L36.1422 287.817L-0.639809 202.756H55.2612L91.9636 287.817Z" fill="#4ECC0A"/>
<path d="M730.112 85.4821L657.894 203.294H601.989L674.287 85.4821L637.505 0.420914H693.41L730.112 85.4821Z" fill="#4ECC0A"/>
<path d="M544.534 202.87H600.211L637.513 0H581.612L544.534 202.87Z" fill="#4ECC0A"/>
<path d="M894.725 85.4821L822.507 203.294H766.606L838.9 85.4821L802.118 0.420914H858.022L894.725 85.4821Z" fill="#4ECC0A"/>
<path d="M709.146 202.87H764.824L802.125 0H746.224L709.146 202.87Z" fill="#4ECC0A"/>
<path d="M565.31 85.4821L493.096 203.294H437.191L509.488 85.4821L472.706 0.420914H528.607L565.31 85.4821Z" fill="#4ECC0A"/>
<path d="M379.735 202.87H435.409L472.71 0H416.813L379.735 202.87Z" fill="#4ECC0A"/>
</g>
<path d="M750.558 287.817L678.344 405.626H622.439L694.737 287.817L657.955 202.756H713.856L750.558 287.817Z" fill="#4ECC0A"/>
<path d="M564.984 405.201H620.657L657.963 202.335H602.062L564.984 405.201Z" fill="#4ECC0A"/>
<path d="M915.171 287.817L842.957 405.626H787.052L859.35 287.817L822.568 202.756H878.472L915.171 287.817Z" fill="#4ECC0A"/>
<path d="M729.596 405.201H785.274L822.575 202.335H766.674L729.596 405.201Z" fill="#4ECC0A"/>
<path d="M585.76 287.817L513.546 405.626H457.641L529.935 287.817L493.153 202.756H549.057L585.76 287.817Z" fill="#4ECC0A"/>
<path d="M400.181 405.201H455.859L493.16 202.335H437.259L400.181 405.201Z" fill="#4ECC0A"/>
<mask id="mask3_63_2" style="mask-type:luminance" maskUnits="userSpaceOnUse" x="-26" y="0" width="1338" height="807">
<path d="M1311.85 0.0303345H-25.1965V806.17H1311.85V0.0303345Z" fill="white"/>
</mask>
<g mask="url(#mask3_63_2)">
<path d="M1223.91 85.4821L1151.69 203.294H1095.79L1168.08 85.4821L1131.3 0.420914H1187.21L1223.91 85.4821Z" fill="#4ECC0A"/>
<path d="M1038.33 202.87H1094.01L1131.31 0H1075.41L1038.33 202.87Z" fill="#4ECC0A"/>
<path d="M1388.52 85.4821L1316.3 203.294H1260.4L1332.7 85.4821L1295.91 0.420914H1351.82L1388.52 85.4821Z" fill="#4ECC0A"/>
<path d="M1202.94 202.87H1258.62L1295.92 0H1240.02L1202.94 202.87Z" fill="#4ECC0A"/>
<path d="M1059.11 85.4821L986.892 203.294H930.987L1003.28 85.4821L966.503 0.420914H1022.4L1059.11 85.4821Z" fill="#4ECC0A"/>
<path d="M873.528 202.87H929.205L966.506 0H910.609L873.528 202.87Z" fill="#4ECC0A"/>
</g>
<path d="M1244.35 287.817L1172.14 405.626H1116.24L1188.53 287.817L1151.75 202.756H1207.65L1244.35 287.817Z" fill="#4ECC0A"/>
<mask id="mask4_63_2" style="mask-type:luminance" maskUnits="userSpaceOnUse" x="-26" y="0" width="1338" height="807">
<path d="M1311.85 0.0303345H-25.1965V806.17H1311.85V0.0303345Z" fill="white"/>
</mask>
<g mask="url(#mask4_63_2)">
<path d="M1058.78 405.201H1114.46L1151.76 202.335H1095.86L1058.78 405.201Z" fill="#4ECC0A"/>
<path d="M1223.39 405.201H1279.07L1316.37 202.335H1260.47L1223.39 405.201Z" fill="#4ECC0A"/>
</g>
<path d="M1079.56 287.817L1007.34 405.626H951.437L1023.73 287.817L986.953 202.756H1042.85L1079.56 287.817Z" fill="#4ECC0A"/>
<path d="M893.978 405.201H949.655L986.956 202.335H931.055L893.978 405.201Z" fill="#4ECC0A"/>
</mask>
<g mask="url(#mask0_63_2)">
<rect y="-8" width="1280" height="396" fill="#4ECC0A" fill-opacity="0.3"/>
</g>
</svg>
