<svg width="242" height="88" viewBox="0 0 242 88" fill="none" xmlns="http://www.w3.org/2000/svg">
<g clip-path="url(#clip0_91_6310)">
<path d="M24.9102 14.9221L21.0953 9.02655L23.9649 7.1946L27.7798 13.1234L29.2652 12.1575L24.6739 5.09619L18.8334 8.76008L23.4247 15.8547L24.9102 14.9221Z" fill="black"/>
<path d="M32.7425 3.43076C33.1477 3.29753 33.519 3.33084 33.8229 3.49738C34.1267 3.66392 34.363 3.93039 34.4981 4.33008C34.6331 4.69647 34.5993 5.02955 34.4305 5.32933C34.2617 5.59579 33.9579 5.82895 33.519 5.96218L32.0336 6.42849L31.2233 3.93039L32.7425 3.43076ZM33.384 10.592L32.4725 7.76082L33.9241 7.2945C34.8694 6.99473 35.5784 6.52842 35.9497 5.89556C36.3549 5.26271 36.4224 4.56324 36.1523 3.79715C35.9835 3.26422 35.7134 2.86453 35.3421 2.53145C34.9707 2.19836 34.4981 1.99852 33.9579 1.9319C33.4177 1.86528 32.8438 1.9319 32.2361 2.09844L29.0627 3.09768L31.6622 11.0916L33.3502 10.5587L33.384 10.592Z" fill="black"/>
<path d="M41.7903 2.19833C42.0941 1.73202 42.533 1.46556 43.1069 1.43225C43.7146 1.39894 44.1535 1.59879 44.5248 2.03179C44.8624 2.4648 45.065 3.13096 45.1325 3.99697V4.39667C45.2 5.26268 45.0988 5.92884 44.7949 6.42846C44.4911 6.89478 44.086 7.16124 43.4783 7.19455C42.8706 7.22786 42.398 7.02801 42.0603 6.5617C41.7227 6.09538 41.5202 5.46253 41.4527 4.59652V4.19682C41.3851 3.33081 41.4864 2.66465 41.7903 2.19833ZM39.6634 4.76306C39.7309 5.56245 39.8997 6.26192 40.2711 6.86147C40.6087 7.46101 41.0813 7.92733 41.6552 8.2271C42.2292 8.52687 42.8706 8.66011 43.5796 8.6268C44.2885 8.59349 44.8962 8.39364 45.4364 7.99394C45.9765 7.62755 46.3479 7.12793 46.618 6.46177C46.888 5.82892 46.9893 5.09614 46.9218 4.26344V3.89705C46.8543 3.06434 46.6517 2.36487 46.3141 1.76533C45.9765 1.16578 45.5039 0.69947 44.93 0.399697C44.4236 0.133232 43.8834 0 43.3095 0H43.242C43.242 0 43.0732 0 43.0056 0C42.2967 0.0333081 41.689 0.233157 41.1488 0.632854C40.6087 0.999243 40.2373 1.49886 39.9672 2.16503C39.6971 2.79788 39.5959 3.56397 39.6634 4.36336V4.76306Z" fill="black"/>
<path d="M51.7495 4.66318C51.8845 4.03033 52.1884 3.56401 52.5935 3.26424C52.9986 2.99778 53.4713 2.89785 54.0452 3.03108H54.1465L53.2349 6.99475H53.1337C52.5597 6.82821 52.1209 6.56174 51.8845 6.16205C51.6482 5.76235 51.5807 5.22942 51.7157 4.62987L51.7495 4.66318ZM55.8007 3.43078H55.902C56.4759 3.59732 56.9148 3.86379 57.1511 4.29679C57.3874 4.7298 57.4212 5.26273 57.2862 5.86227C57.1511 6.46182 56.881 6.89482 56.4759 7.16129C56.0708 7.42775 55.5981 7.52768 55.0242 7.39444H54.9229L55.8345 3.43078H55.8007ZM51.1418 7.56098C51.6145 7.96068 52.1546 8.22715 52.8298 8.39369H52.9311L52.6948 9.45955L54.349 9.82594L54.5853 8.79338C55.6657 9.02654 56.611 8.92662 57.3874 8.42699C58.1639 7.96068 58.6703 7.2279 58.9066 6.22866C59.0754 5.5625 59.0417 4.92965 58.9066 4.36341C58.7378 3.76386 58.4002 3.29755 57.9613 2.86454C57.4887 2.46485 56.9485 2.19838 56.3071 2.03184H56.2058L56.4421 0.932673L54.7879 0.566284L54.5516 1.63214H54.3828C53.7413 1.4656 53.1337 1.4656 52.526 1.63214C51.9521 1.79868 51.4457 2.13176 51.0405 2.56477C50.6354 3.03108 50.3653 3.56401 50.1965 4.23018C50.0615 4.86303 50.0615 5.49588 50.2303 6.06212C50.3991 6.62836 50.7367 7.12798 51.1756 7.52768L51.1418 7.56098Z" fill="black"/>
<path d="M65.6248 12.6238L62.1138 10.8251L63.1603 8.82664L66.1312 10.3588L66.7727 9.15972L63.8018 7.62755L64.7133 5.82891L68.2244 7.62755L68.8996 6.39515L63.8355 3.79712L59.8856 11.2581L64.9496 13.8562L65.6248 12.6238Z" fill="black"/>
<path d="M69.0684 17.187C69.8111 17.8198 70.6214 18.1529 71.3978 18.1529C72.2081 18.1529 72.9171 17.8198 73.5923 17.187L72.2756 16.0545C71.9043 16.4209 71.5329 16.6207 71.1615 16.6207C70.7902 16.6207 70.4188 16.4542 70.0137 16.1211C69.5748 15.7214 69.3722 15.2884 69.4398 14.7888C69.5073 14.2892 69.8449 13.6896 70.4526 13.0234L70.8577 12.5571C71.4316 11.891 71.9718 11.5246 72.4782 11.3913C72.9846 11.2581 73.4235 11.3913 73.8961 11.7577C74.3012 12.0908 74.5375 12.4572 74.5713 12.8236C74.6051 13.19 74.47 13.5897 74.1324 14.0227L75.4491 15.1552C75.9892 14.3891 76.2255 13.623 76.0905 12.8236C75.9892 12.0575 75.5503 11.3247 74.8076 10.6919C74.2675 10.2256 73.6935 9.9591 73.0521 9.85918C72.4444 9.75925 71.803 9.85918 71.1615 10.1256C70.5201 10.3921 69.9462 10.8584 69.406 11.458L69.0684 11.8577C68.2244 12.8236 67.8193 13.7895 67.8193 14.7222C67.8193 15.6881 68.2244 16.4875 69.0684 17.2203V17.187Z" fill="black"/>
<path d="M74.4362 20.9841C74.1999 21.9167 74.3687 22.8161 75.0102 23.6821C75.5841 24.4815 76.2593 24.9811 77.0358 25.1809C77.8123 25.3808 78.5887 25.2475 79.399 24.7812L78.3862 23.349C77.9473 23.6154 77.5422 23.7154 77.1708 23.6154C76.7994 23.5488 76.4956 23.2824 76.158 22.8494C75.8204 22.3497 75.7529 21.8834 75.9217 21.4171C76.1243 20.9508 76.5969 20.4512 77.3396 19.9516L77.8798 19.5852C78.6225 19.0855 79.2302 18.8524 79.7366 18.8524C80.243 18.8524 80.6819 19.0855 81.0195 19.5519C81.3233 19.9849 81.4583 20.3846 81.3908 20.7176C81.3233 21.084 81.087 21.4171 80.6819 21.7502L81.6947 23.1824C82.4374 22.5829 82.8425 21.8834 82.91 21.084C83.0113 20.2846 82.775 19.5186 82.2011 18.7192C81.7959 18.1529 81.2895 17.7199 80.7156 17.4868C80.1417 17.2536 79.5003 17.187 78.8251 17.2869C78.1499 17.4201 77.4747 17.6866 76.7995 18.1529L76.3606 18.4527C75.314 19.1855 74.6726 20.0182 74.4025 20.9175L74.4362 20.9841Z" fill="black"/>
<path d="M78.7238 29.9773L85.2057 31.2097L79.9054 33.1416L80.5131 34.7737L88.4804 31.8425L87.8728 30.2104L81.3908 29.0114L86.6911 27.0795L86.0835 25.4474L78.1161 28.3452L78.7238 29.9773Z" fill="black"/>
<path d="M88.5142 39.8698C88.5817 40.4693 88.3792 40.9356 87.9403 41.2687C87.5014 41.6351 86.86 41.835 85.9484 41.9349H85.5433C84.6656 42.0681 83.9904 41.9349 83.484 41.7017C82.9776 41.4353 82.7075 41.0023 82.6737 40.436C82.6062 39.8365 82.8088 39.3702 83.2476 39.0038C83.6865 38.6374 84.3617 38.4375 85.2057 38.3376H85.6108C86.4886 38.2044 87.1638 38.3376 87.6702 38.6041C88.1428 38.8705 88.4129 39.3035 88.4804 39.8698H88.5142ZM85.442 36.5723H85.0369C84.2267 36.7055 83.5177 36.9054 82.91 37.2717C82.3024 37.6381 81.8635 38.1044 81.5934 38.6707C81.3233 39.2369 81.1883 39.8698 81.2558 40.5692C81.3233 41.2687 81.5596 41.8683 81.931 42.4012C82.3361 42.9008 82.8425 43.2672 83.5177 43.5004C84.1592 43.7335 84.9356 43.8001 85.7459 43.7335H86.1172C86.9612 43.6336 87.6702 43.4004 88.2779 43.034C88.8856 42.6677 89.3245 42.2013 89.6283 41.6351C89.9321 41.0689 90.0334 40.436 89.9659 39.7365C89.8984 39.0371 89.6621 38.4375 89.2907 37.9379C88.8856 37.4383 88.3792 37.0386 87.704 36.8054C87.0288 36.5723 86.286 36.4724 85.442 36.5723Z" fill="black"/>
<path d="M89.7296 49.5625L89.9997 47.8638L81.6272 46.4315L81.3233 48.1302L84.9019 48.7298L84.328 52.0606L80.7494 51.461L80.4456 53.1598L88.8518 54.592L89.1219 52.8933L85.7459 52.2937L86.3198 48.9962L89.7296 49.5625Z" fill="black"/>
<path d="M81.5596 58.9887L84.0241 61.2537L80.6818 60.8873L81.5596 58.9887ZM79.1289 56.7238L80.4793 57.9895L79.1964 60.754L77.3396 60.5542L76.5631 62.2196L85.6446 62.8857L86.3198 61.4202L79.9054 55.0583L79.1289 56.7238Z" fill="black"/>
<path d="M76.5294 66.0166C76.2931 65.5836 76.3268 65.1839 76.5294 64.8175L76.6982 64.5844L75.6179 63.6851L75.314 64.0181C74.8751 64.5178 74.6726 65.0174 74.6051 65.4504C74.5713 65.9167 74.7063 66.4163 75.0102 66.9159C75.314 67.4489 75.8542 68.0484 76.5969 68.7479L78.7913 70.7797L77.3396 72.4784L71.9043 67.9485L70.7564 69.2808L77.2721 74.71L80.952 70.4133L78.0486 67.8153C77.2046 67.0492 76.6644 66.4496 76.4281 66.0166H76.5294Z" fill="black"/>
<path d="M61.5399 75.8759L66.165 82.9372L67.6505 82.0046L62.9916 74.9432L61.5399 75.8759Z" fill="black"/>
<path d="M68.4945 76.1756C68.1231 76.4088 67.7517 76.5087 67.4141 76.4421C67.0765 76.4088 66.8065 76.2089 66.6039 75.8759C66.3676 75.5428 66.3001 75.1764 66.4013 74.8433C66.5026 74.5102 66.7389 74.2105 67.1103 73.944L68.2919 73.1779L69.7098 75.3429L68.4945 76.109V76.1756ZM66.3001 72.8448C65.4898 73.3778 64.9834 74.0106 64.7808 74.7434C64.5783 75.4762 64.6796 76.1756 65.1185 76.8751C65.5573 77.5413 66.165 77.941 66.9415 78.0076C67.6842 78.1075 68.4945 77.8744 69.3385 77.3414L70.4863 76.6086L72.1743 79.1401L73.6598 78.1741L69.0009 71.1461L66.3338 72.8781L66.3001 72.8448Z" fill="black"/>
<path d="M58.3327 76.9751C57.2186 77.3748 56.0707 77.7412 54.9229 78.0409C54.5853 78.1409 54.2477 78.2075 53.8763 78.2741C53.64 78.3407 53.3699 78.4073 53.1336 78.4406C52.7285 78.5406 52.2896 78.6072 51.8507 78.6738C51.6819 78.6738 51.5131 78.7404 51.3106 78.7737C51.0067 78.807 50.7367 78.8403 50.4328 78.8736C50.0615 78.9069 49.7239 78.9736 49.3525 79.0069C49.1499 79.0069 48.9811 79.0069 48.7786 79.0402C48.3397 79.0735 47.9008 79.1068 47.4957 79.1401C47.3606 79.1401 47.2256 79.1401 47.1243 79.1401C46.6179 79.1401 46.1453 79.1734 45.6389 79.1734C45.5714 79.1734 45.5038 79.1734 45.4026 79.1734C44.8624 79.1734 44.2885 79.1734 43.7483 79.1401C43.7146 79.1401 43.6808 79.1401 43.647 79.1401C43.0731 79.1401 42.4654 79.0735 41.8915 79.0069C41.8915 79.0069 41.8578 79.0069 41.824 79.0069C41.2501 78.9403 40.6424 78.8736 40.0685 78.7737C40.0347 78.7737 40.0009 78.7737 39.9334 78.7737C39.3595 78.6738 38.7856 78.5739 38.2454 78.4739C38.1441 78.4739 38.0429 78.4406 37.9753 78.4073C37.604 78.3407 37.2326 78.2408 36.8613 78.1409C36.6925 78.1076 36.5574 78.0742 36.3886 78.0409C36.2198 78.0076 36.0173 77.941 35.8485 77.8744C35.7472 77.8744 35.6459 77.8078 35.5446 77.7745C35.207 77.6745 34.8357 77.5746 34.4981 77.4747C34.2955 77.4081 34.1267 77.3415 33.9241 77.2748C33.519 77.1416 33.0801 76.9751 32.675 76.8085C32.5062 76.7419 32.3374 76.6753 32.1686 76.6087C31.7297 76.4421 31.2908 76.2756 30.8857 76.0758C30.7169 76.0091 30.5144 75.9092 30.3456 75.8093C29.9404 75.6094 29.5353 75.4429 29.1302 75.2431C28.8601 75.1098 28.59 74.9433 28.32 74.81C28.0499 74.6768 27.7798 74.5103 27.5097 74.377C27.1046 74.1439 26.6657 73.8774 26.2606 73.611C26.1593 73.5443 26.0243 73.4777 25.923 73.4111C25.6867 73.2446 25.4166 73.078 25.1803 72.9115C24.9102 72.7449 24.6401 72.5451 24.37 72.3786C24.235 72.2786 24.1337 72.1787 23.9987 72.1121C23.5935 71.8123 23.1884 71.5126 22.8171 71.1795C22.7158 71.1129 22.6145 71.0129 22.5132 70.9463C22.1419 70.6465 21.7705 70.3135 21.3991 69.9804C21.3316 69.9138 21.2641 69.8471 21.1966 69.8138C20.8252 69.4808 20.4539 69.1144 20.0825 68.748C20.015 68.6814 19.9475 68.6147 19.8799 68.5148C19.5423 68.1817 19.2047 67.8153 18.8671 67.449C18.7659 67.349 18.6646 67.2491 18.5971 67.1159C18.2932 66.7828 18.0231 66.4497 17.7531 66.1166C17.6855 66.05 17.6518 65.9834 17.5843 65.9168C17.483 65.8169 17.4155 65.7169 17.3142 65.5837C17.1116 65.3172 16.8753 65.0508 16.6727 64.7843C16.4702 64.5178 16.3014 64.2514 16.0988 63.9849C15.9638 63.7851 15.8287 63.6185 15.6937 63.4187C15.4574 63.0856 15.2548 62.7192 15.0185 62.3861C14.951 62.2529 14.8497 62.153 14.7822 62.0197C14.5458 61.62 14.3095 61.2203 14.0732 60.8206C14.0394 60.7207 13.9719 60.6541 13.9382 60.5542C13.7018 60.1212 13.4993 59.6882 13.263 59.2552C13.2292 59.1886 13.1954 59.1219 13.1617 59.0553C12.9591 58.6223 12.7566 58.156 12.554 57.723C12.554 57.6564 12.4865 57.5565 12.4527 57.4898C12.2839 57.0568 12.1151 56.6238 11.9463 56.1908C11.9126 56.0909 11.8788 55.991 11.845 55.891C11.71 55.4914 11.5412 55.0583 11.4399 54.6586C11.4062 54.5254 11.3386 54.3589 11.3049 54.2256C11.2036 53.8593 11.1023 53.4929 11.001 53.1265C10.9335 52.9266 10.8998 52.7268 10.8322 52.5269C10.8322 52.4936 10.8322 52.427 10.8322 52.3937C10.7647 52.0939 10.6972 51.8275 10.6297 51.5277C10.5622 51.2945 10.5284 51.0614 10.4609 50.8282C10.3934 50.5284 10.3596 50.2287 10.2921 49.9289C10.2583 49.6624 10.1908 49.396 10.157 49.1295C10.1233 48.863 10.0895 48.5966 10.0558 48.3301C10.022 48.0303 9.98824 47.7306 9.95448 47.3975C9.95448 47.1643 9.92072 46.9312 9.88696 46.698C9.88696 46.3649 9.81944 46.0318 9.81944 45.6655C9.81944 45.4656 9.81944 45.2658 9.81944 45.0659C9.81944 44.6995 9.81944 44.3331 9.81944 43.9667C9.81944 43.8002 9.81944 43.6004 9.81944 43.4338C9.81944 43.0341 9.81944 42.6677 9.81944 42.268C9.81944 42.1015 9.81944 41.935 9.81944 41.7684C9.81944 41.3687 9.88696 40.969 9.92072 40.5693C9.92072 40.4028 9.95448 40.2362 9.98824 40.0697C10.022 39.67 10.0895 39.2703 10.1233 38.8706C10.1233 38.7041 10.1908 38.5042 10.2246 38.3377C10.2921 37.9713 10.3596 37.5716 10.4271 37.2052C10.4271 37.1053 10.4609 36.972 10.4946 36.8721C10.4946 36.7722 10.5284 36.639 10.5622 36.539C10.6297 36.206 10.6972 35.8729 10.7647 35.5731C10.8322 35.24 10.9335 34.9069 11.0348 34.6072C11.1023 34.4073 11.1361 34.1742 11.2036 33.9743C11.3386 33.508 11.4737 33.075 11.6425 32.6087C11.6425 32.5421 11.71 32.4421 11.71 32.3755C12.1151 31.2764 12.554 30.1772 13.0604 29.078C13.2967 28.5451 13.5668 28.0122 13.8369 27.5125C14.0732 27.0795 14.2758 26.6798 14.5458 26.2801C14.6471 26.1136 14.7484 25.9471 14.8497 25.7805C15.0185 25.5141 15.1873 25.2476 15.3561 24.9811C15.6262 24.5481 15.93 24.1151 16.2339 23.6821C16.3351 23.5156 16.4702 23.349 16.5715 23.1825C16.7065 23.016 16.8415 22.8161 16.9766 22.6496C17.2467 22.2832 17.5167 21.9501 17.8206 21.5837C18.0907 21.2839 18.3607 20.9509 18.5971 20.6511C19.4748 19.6518 20.3863 18.7192 21.3654 17.8532L15.2548 11.2915C13.7356 12.6571 12.3177 14.1227 10.9673 15.7215C10.8998 15.7881 10.866 15.888 10.7985 15.9546C10.4271 16.3876 10.0895 16.8206 9.75192 17.287C9.58312 17.5201 9.41432 17.72 9.24552 17.9531C9.0092 18.2862 8.77287 18.6193 8.53655 18.9524C8.40151 19.1522 8.23271 19.3854 8.09767 19.5852C8.09767 19.5852 8.06391 19.6518 8.03015 19.6851C7.96263 19.7851 7.89511 19.9183 7.82759 20.0182C7.76007 20.1515 7.65879 20.2514 7.59127 20.3846C7.52375 20.5178 7.42247 20.6511 7.35495 20.7843C7.18615 21.0508 7.01735 21.3172 6.88231 21.5837C6.81479 21.6836 6.78103 21.7836 6.71351 21.8502C6.61223 22.0167 6.51095 22.1833 6.40967 22.3498C6.17335 22.7495 5.97079 23.1492 5.76823 23.5489C5.70071 23.6488 5.66695 23.782 5.59943 23.882C5.32935 24.4149 5.05927 24.9811 4.78919 25.5141C4.72167 25.6806 4.65415 25.8471 4.55287 26.0137C4.31654 26.5133 4.11398 27.0129 3.91142 27.5125C3.81014 27.7457 3.74262 27.9789 3.64134 28.212C3.47254 28.645 3.30374 29.078 3.1687 29.511C3.06742 29.8108 2.96614 30.1439 2.86486 30.4437C2.72982 30.81 2.62854 31.1764 2.52726 31.5428C2.42598 31.9092 2.3247 32.3089 2.22342 32.6753C2.1559 32.9751 2.05462 33.2748 1.9871 33.5746C1.9871 33.6412 1.95334 33.7412 1.91958 33.8078C1.85206 34.1409 1.78454 34.5072 1.68326 34.8403C1.61574 35.0735 1.58198 35.34 1.51446 35.5731C1.51446 35.7063 1.44694 35.8396 1.44694 35.9728C1.41318 36.1727 1.37942 36.3725 1.34566 36.5723C1.34566 36.7389 1.27814 36.9387 1.24438 37.1053C1.24438 37.2718 1.17686 37.4717 1.1431 37.6382C1.07558 38.2044 1.00806 38.804 0.940537 39.3702C0.940537 39.5035 0.940537 39.6034 0.906776 39.7366C0.839256 40.3362 0.805496 40.969 0.771736 41.5686C0.771736 41.6685 0.771736 41.7684 0.771736 41.8683C0.771736 42.4679 0.737976 43.1007 0.737976 43.7003C0.737976 43.8002 0.737976 43.9001 0.737976 44.0001C0.737976 44.5996 0.737976 45.1658 0.771736 45.7654C0.771736 45.8986 0.771736 46.0318 0.771736 46.1651C0.771736 46.698 0.839256 47.2643 0.873016 47.7972C0.873016 47.997 0.873016 48.1636 0.906776 48.3634C0.940537 48.8297 1.00806 49.3293 1.07558 49.7957C1.10934 50.0621 1.1431 50.2953 1.17686 50.5618C1.24438 50.9614 1.3119 51.3611 1.37942 51.7608C1.44694 52.0939 1.4807 52.3937 1.54822 52.7268C1.61574 53.0599 1.68326 53.3596 1.75078 53.6927C1.85206 54.0924 1.91958 54.4921 2.02086 54.8585C2.02086 54.9251 2.05462 55.025 2.08838 55.0917C2.12214 55.2582 2.18966 55.3914 2.22342 55.558C2.22342 55.558 2.22342 55.558 2.22342 55.5913C2.35846 56.0243 2.45974 56.4906 2.59478 56.9236C2.6623 57.1568 2.72982 57.3566 2.79734 57.5898C2.93238 58.0561 3.10118 58.5224 3.26998 58.9887C3.3375 59.1885 3.40502 59.3884 3.5063 59.5882C3.6751 60.0546 3.87766 60.5209 4.04646 60.9872C4.11398 61.187 4.21526 61.3869 4.31654 61.5534C4.51911 62.0197 4.72167 62.4527 4.92423 62.9191C5.02551 63.1189 5.12679 63.3188 5.22807 63.5186C5.43063 63.9516 5.66695 64.3846 5.90327 64.8176C6.03831 65.0508 6.17335 65.2839 6.27463 65.5171C6.47719 65.9168 6.71351 66.2832 6.94983 66.6829C7.11863 66.9493 7.28743 67.2158 7.45623 67.4823C7.65879 67.8153 7.86135 68.1484 8.09767 68.4815C8.30023 68.8146 8.53655 69.1144 8.77288 69.4141C8.97544 69.6806 9.14424 69.9471 9.3468 70.2135C9.61688 70.5799 9.92072 70.9463 10.1908 71.3127C10.3596 71.5125 10.4946 71.7124 10.6634 71.8789C10.731 71.9456 10.7985 72.0455 10.866 72.1454C11.0348 72.3452 11.2036 72.5451 11.3724 72.7449C11.5412 72.9115 11.6762 73.1113 11.845 73.2779C11.9126 73.3445 11.9801 73.4444 12.0476 73.511C12.1489 73.611 12.2164 73.7109 12.3177 73.8108C12.3852 73.8774 12.419 73.944 12.4865 73.9773C14.0394 75.6427 15.7612 77.2082 17.618 78.6738C17.8881 78.8736 18.1582 79.0735 18.4283 79.3066C18.6308 79.4732 18.8334 79.6064 19.0697 79.773C19.0697 79.773 19.1372 79.8063 19.171 79.8396C19.6436 80.1727 20.1163 80.5057 20.5889 80.8055C20.6564 80.8721 20.7239 80.9054 20.8252 80.972C23.6273 82.804 26.5982 84.3029 29.6704 85.4353C29.7716 85.4353 29.8392 85.502 29.9404 85.5353C30.2105 85.6352 30.4806 85.7351 30.7507 85.835C30.9532 85.9016 31.1558 85.9683 31.3584 86.0349C31.5272 86.1015 31.6622 86.1348 31.831 86.2014C32.0673 86.268 32.3036 86.3347 32.5737 86.4346C32.6413 86.4346 32.7088 86.4679 32.7763 86.5012C32.8438 86.5012 32.8776 86.5012 32.9451 86.5345C33.1814 86.6011 33.4177 86.6677 33.6541 86.7344C33.7553 86.7344 33.8904 86.801 33.9917 86.8343C34.228 86.9009 34.4643 86.9675 34.7006 87.0341C34.8694 87.0674 35.0382 87.1007 35.207 87.1674C35.4096 87.2007 35.5784 87.2673 35.7809 87.3006C35.9835 87.3339 36.2198 87.4005 36.4224 87.4338C36.5574 87.4338 36.6925 87.5004 36.8275 87.5004C37.0976 87.5671 37.3677 87.6004 37.6377 87.667C37.739 87.667 37.8065 87.667 37.9078 87.7003C38.2117 87.7669 38.5493 87.8002 38.8531 87.8668C38.8869 87.8668 38.9206 87.8668 38.9544 87.8668C39.7984 88.0001 40.6424 88.1 41.4864 88.1666H49.6563C51.0743 88.0334 52.5259 87.8335 53.9439 87.5671H54.0114C54.349 87.5004 54.6866 87.4338 55.0242 87.3672C55.0917 87.3672 55.193 87.3339 55.2605 87.3006C55.5306 87.234 55.8344 87.1674 56.1045 87.1007C56.2395 87.1007 56.3746 87.0341 56.5096 87.0008C56.746 86.9342 56.9485 86.9009 57.1848 86.8343C57.2186 86.8343 57.2861 86.8343 57.3199 86.801C58.704 86.4346 60.0882 86.0016 61.4386 85.5019L58.2651 77.1416L58.3327 76.9751Z" fill="black"/>
<path d="M111.404 9.95911H114.138C114.982 9.95911 115.624 10.159 116.062 10.5587C116.501 10.9583 116.738 11.5246 116.738 12.2574C116.738 12.9901 116.501 13.5564 116.062 13.9561C115.624 14.3558 114.982 14.5556 114.138 14.5556H112.923V17.0537H111.404V9.95911ZM114.003 13.4565C114.476 13.4565 114.78 13.3565 114.982 13.1234C115.185 12.8902 115.252 12.6238 115.252 12.2574C115.252 11.891 115.151 11.5912 114.982 11.3914C114.813 11.1915 114.476 11.0916 114.003 11.0916H112.923V13.4565H114.003Z" fill="black"/>
<path d="M117.784 9.95911H122.646V11.0916H119.303V12.8569H122.207V13.9894H119.303V15.9546H122.679V17.087H117.784V9.99241V9.95911Z" fill="black"/>
<path d="M123.76 9.95911H128.385V11.0916H125.279V17.0537H123.76V9.95911Z" fill="black"/>
<path d="M133.719 17.0537V12.7237C133.719 12.7237 133.719 12.4905 133.719 12.3573C133.719 12.2241 133.719 12.0908 133.719 11.9909H133.685C133.685 11.9909 133.584 12.2241 133.516 12.324C133.449 12.4239 133.415 12.5238 133.348 12.6571L130.883 17.0871H129.229V9.99243H130.748V14.3225C130.748 14.3225 130.748 14.5556 130.748 14.6889C130.748 14.8221 130.748 14.9553 130.748 15.0553H130.782C130.782 15.0553 130.883 14.8554 130.917 14.7555C130.951 14.6556 131.052 14.5223 131.086 14.4224L133.55 9.99243H135.204V17.0871H133.685L133.719 17.0537Z" fill="black"/>
<path d="M136.521 13.29C136.521 12.1575 136.825 11.2915 137.433 10.6919C138.04 10.0924 138.817 9.7926 139.762 9.7926C140.707 9.7926 141.484 10.0924 142.091 10.6919C142.699 11.2915 143.003 12.1575 143.003 13.29V13.723C143.003 14.8554 142.699 15.7214 142.091 16.321C141.484 16.9205 140.707 17.2203 139.762 17.2203C138.817 17.2203 138.04 16.9205 137.433 16.321C136.825 15.7214 136.521 14.8554 136.521 13.723V13.29ZM138.547 15.5216C138.85 15.888 139.256 16.0545 139.762 16.0545C140.268 16.0545 140.674 15.888 140.977 15.5216C141.281 15.1552 141.45 14.6223 141.45 13.8895V13.1567C141.45 12.4239 141.281 11.8577 140.977 11.5246C140.674 11.1582 140.268 10.9917 139.762 10.9917C139.256 10.9917 138.85 11.1582 138.547 11.5246C138.243 11.891 138.108 12.4239 138.108 13.1567V13.8895C138.108 14.6223 138.243 15.1885 138.547 15.5216Z" fill="black"/>
<path d="M144.218 9.95911H145.738V12.8236H148.641V9.95911H150.16V17.0537H148.641V13.9561H145.738V17.0537H144.218V9.95911Z" fill="black"/>
<path d="M153.536 9.92576H155.123L157.891 17.0537H156.271L154.414 12.0242C154.414 12.0242 154.346 11.8243 154.313 11.6911C154.279 11.5579 154.279 11.4912 154.245 11.3913H154.211C154.211 11.3913 154.178 11.5912 154.144 11.6911C154.144 11.791 154.076 11.8909 154.043 11.9909L152.186 17.0204H150.768L153.502 9.89246L153.536 9.92576ZM152.726 14.3891H155.899L156.237 15.4882H152.355L152.692 14.3891H152.726Z" fill="black"/>
<path d="M164.474 9.95911V17.0537H162.955V11.0916H160.626L160.423 14.4224C160.389 15.3217 160.221 16.0212 159.917 16.4875C159.647 16.9538 159.14 17.187 158.431 17.187C158.33 17.187 158.229 17.187 158.127 17.187C158.026 17.187 157.891 17.187 157.79 17.1203V15.8879C157.79 15.8879 157.925 15.9213 157.992 15.9546C158.06 15.9546 158.127 15.9546 158.195 15.9546C158.533 15.9546 158.735 15.8213 158.87 15.5549C159.005 15.2884 159.073 14.8554 159.107 14.1892L159.343 9.95911H164.407H164.474Z" fill="black"/>
<path d="M165.994 9.95911H167.513V12.5238H168.728C169.64 12.5238 170.315 12.7237 170.72 13.1567C171.125 13.5897 171.361 14.1226 171.361 14.7888C171.361 15.4549 171.159 16.0212 170.72 16.4542C170.315 16.8539 169.64 17.087 168.728 17.087H165.994V9.99241V9.95911ZM167.513 13.6563V15.9546H168.627C169.066 15.9546 169.37 15.8546 169.572 15.6548C169.775 15.4549 169.842 15.1552 169.842 14.8221C169.842 14.489 169.741 14.1892 169.572 13.9894C169.37 13.7895 169.066 13.6896 168.627 13.6896H167.513V13.6563Z" fill="black"/>
<path d="M172.374 9.95911H173.893V12.8236H176.797V9.95911H178.316V17.0537H176.797V13.9561H173.893V17.0537H172.374V9.95911Z" fill="black"/>
<path d="M179.835 9.95911H181.354V12.5238H182.57C183.481 12.5238 184.156 12.7237 184.562 13.1567C184.967 13.5897 185.203 14.1226 185.203 14.7888C185.203 15.4549 185 16.0212 184.562 16.4542C184.156 16.8539 183.481 17.087 182.57 17.087H179.835V9.99241V9.95911ZM181.354 13.6563V15.9546H182.468C182.907 15.9546 183.211 15.8546 183.414 15.6548C183.616 15.4549 183.684 15.1552 183.684 14.8221C183.684 14.489 183.583 14.1892 183.414 13.9894C183.211 13.7895 182.907 13.6896 182.468 13.6896H181.354V13.6563ZM185.912 17.087H187.431V9.99241H185.912V17.087Z" fill="black"/>
<path d="M193.441 17.0538V12.7237C193.441 12.7237 193.441 12.4906 193.441 12.3573C193.441 12.2241 193.441 12.0909 193.441 11.9909H193.407C193.407 11.9909 193.305 12.2241 193.238 12.324C193.17 12.4239 193.137 12.5239 193.069 12.6571L190.605 17.0871H188.95V9.99246H190.47V14.3225C190.47 14.3225 190.47 14.5557 190.47 14.6889C190.47 14.8221 190.47 14.9554 190.47 15.0553H190.503C190.503 15.0553 190.605 14.8554 190.638 14.7555C190.672 14.6556 190.773 14.5224 190.807 14.4224L193.272 9.99246H194.926V17.0871H193.407L193.441 17.0538ZM192.732 8.16051C192.9 8.02728 193.069 7.76082 193.17 7.42773L194.048 7.89405C193.846 8.39367 193.576 8.72675 193.238 8.9266C192.9 9.12645 192.495 9.22637 192.023 9.22637C191.55 9.22637 191.179 9.12645 190.807 8.9266C190.436 8.72675 190.166 8.36036 189.997 7.89405L190.875 7.42773C190.976 7.76082 191.111 8.02728 191.314 8.16051C191.516 8.29375 191.753 8.36036 192.056 8.36036C192.36 8.36036 192.597 8.29375 192.765 8.16051H192.732Z" fill="black"/>
<path d="M111.404 21.9501H112.923V29.0447H111.404V21.9501ZM113.395 24.8146L115.894 21.9501H117.514L113.936 25.9804H112.248V24.8479H113.395V24.8146ZM113.227 25.7805L114.307 24.8812L117.784 29.078H115.894L113.227 25.8138V25.7805Z" fill="black"/>
<path d="M118.054 25.2808C118.054 24.1483 118.358 23.2823 118.966 22.6828C119.573 22.0832 120.35 21.7834 121.295 21.7834C122.241 21.7834 123.017 22.0832 123.625 22.6828C124.232 23.2823 124.536 24.1483 124.536 25.2808V25.7138C124.536 26.8463 124.232 27.7123 123.625 28.3118C123.017 28.9114 122.241 29.2112 121.295 29.2112C120.35 29.2112 119.573 28.9114 118.966 28.3118C118.358 27.7123 118.054 26.8463 118.054 25.7138V25.2808ZM120.08 27.5124C120.384 27.8788 120.789 28.0454 121.295 28.0454C121.802 28.0454 122.207 27.8788 122.511 27.5124C122.814 27.1461 122.983 26.6131 122.983 25.8803V25.1476C122.983 24.4148 122.814 23.8485 122.511 23.5155C122.207 23.1491 121.802 22.9825 121.295 22.9825C120.789 22.9825 120.384 23.1491 120.08 23.5155C119.776 23.8819 119.641 24.4148 119.641 25.1476V25.8803C119.641 26.6131 119.776 27.1794 120.08 27.5124Z" fill="black"/>
<path d="M125.515 25.2808C125.515 24.1483 125.819 23.2823 126.427 22.6828C127.034 22.0832 127.811 21.7834 128.756 21.7834C129.702 21.7834 130.478 22.0832 131.086 22.6828C131.693 23.2823 131.997 24.1483 131.997 25.2808V25.7138C131.997 26.8463 131.693 27.7123 131.086 28.3118C130.478 28.9114 129.702 29.2112 128.756 29.2112C127.811 29.2112 127.034 28.9114 126.427 28.3118C125.819 27.7123 125.515 26.8463 125.515 25.7138V25.2808ZM127.541 27.5124C127.845 27.8788 128.25 28.0454 128.756 28.0454C129.263 28.0454 129.668 27.8788 129.972 27.5124C130.275 27.1461 130.444 26.6131 130.444 25.8803V25.1476C130.444 24.4148 130.275 23.8485 129.972 23.5155C129.668 23.1491 129.263 22.9825 128.756 22.9825C128.25 22.9825 127.845 23.1491 127.541 23.5155C127.237 23.8819 127.102 24.4148 127.102 25.1476V25.8803C127.102 26.6131 127.237 27.1794 127.541 27.5124Z" fill="black"/>
<path d="M133.246 21.9501H135.981C136.825 21.9501 137.466 22.1499 137.905 22.5496C138.344 22.9493 138.58 23.5156 138.58 24.2483C138.58 24.9811 138.344 25.5473 137.905 25.947C137.466 26.3467 136.825 26.5466 135.981 26.5466H134.766V29.0447H133.246V21.9501ZM135.846 25.4474C136.318 25.4474 136.622 25.3475 136.825 25.1143C137.027 24.8812 137.095 24.6147 137.095 24.2483C137.095 23.8819 136.994 23.5822 136.825 23.3823C136.656 23.1825 136.318 23.0825 135.846 23.0825H134.766V25.4474H135.846Z" fill="black"/>
<path d="M144.86 29.0447H140.302V30.4436H138.884V27.8789H146.278V30.4436H144.86V29.0447ZM145.4 21.9501V29.0447H143.881V23.0825H141.484L141.349 25.6806C141.349 26.3467 141.247 26.8797 141.146 27.2794C141.045 27.679 140.91 28.0454 140.741 28.3452H139.323C139.526 27.9788 139.694 27.6124 139.796 27.2127C139.897 26.813 139.965 26.2801 139.998 25.5806L140.201 21.9167H145.366L145.4 21.9501Z" fill="black"/>
<path d="M151.646 29.0447V24.7147C151.646 24.7147 151.646 24.4815 151.646 24.3483C151.646 24.215 151.646 24.0818 151.646 23.9819H151.612C151.612 23.9819 151.511 24.215 151.443 24.315C151.375 24.4149 151.342 24.5148 151.274 24.648L148.81 29.078H147.155V21.9834H148.675V26.3135C148.675 26.3135 148.675 26.5466 148.675 26.6798C148.675 26.8131 148.675 26.9463 148.675 27.0462H148.708C148.708 27.0462 148.81 26.8464 148.843 26.7465C148.877 26.6465 148.978 26.5133 149.012 26.4134L151.477 21.9834H153.131V29.078H151.612L151.646 29.0447Z" fill="black"/>
<path d="M154.684 21.9501H156.203V24.8146H159.107V21.9501H160.626V29.0447H159.107V25.947H156.203V29.0447H154.684V21.9501Z" fill="black"/>
<path d="M163.968 21.9167H165.555L168.323 29.0447H166.703L164.846 24.0151C164.846 24.0151 164.778 23.8153 164.744 23.6821C164.711 23.5488 164.711 23.4822 164.677 23.3823H164.643C164.643 23.3823 164.609 23.5821 164.576 23.6821C164.576 23.782 164.508 23.8819 164.474 23.9818L162.618 29.0114H161.2L163.934 21.8834L163.968 21.9167ZM163.158 26.38H166.331L166.669 27.4792H162.786L163.124 26.38H163.158Z" fill="black"/>
<path d="M174.299 29.0447H168.964V21.9501H170.484V27.9122H173.286V21.9501H174.805V27.9122H175.683V30.4769H174.265V29.078L174.299 29.0447Z" fill="black"/>
<path d="M181.084 29.0447V24.7147C181.084 24.7147 181.084 24.4815 181.084 24.3483C181.084 24.215 181.084 24.0818 181.084 23.9819H181.051C181.051 23.9819 180.949 24.215 180.882 24.315C180.814 24.4149 180.78 24.5148 180.713 24.648L178.248 29.078H176.594V21.9834H178.113V26.3135C178.113 26.3135 178.113 26.5466 178.113 26.6798C178.113 26.8131 178.113 26.9463 178.113 27.0462H178.147C178.147 27.0462 178.248 26.8464 178.282 26.7465C178.316 26.6465 178.417 26.5133 178.451 26.4134L180.916 21.9834H182.57V29.078H181.051L181.084 29.0447Z" fill="black"/>
<path d="M183.853 25.2808C183.853 24.1483 184.157 23.2823 184.764 22.6828C185.372 22.0832 186.148 21.7834 187.094 21.7834C188.039 21.7834 188.815 22.0832 189.423 22.6828C190.031 23.2823 190.335 24.1483 190.335 25.2808V25.7138C190.335 26.8463 190.031 27.7123 189.423 28.3118C188.815 28.9114 188.039 29.2112 187.094 29.2112C186.148 29.2112 185.372 28.9114 184.764 28.3118C184.157 27.7123 183.853 26.8463 183.853 25.7138V25.2808ZM185.878 27.5124C186.182 27.8788 186.587 28.0454 187.094 28.0454C187.6 28.0454 188.005 27.8788 188.309 27.5124C188.613 27.1461 188.782 26.6131 188.782 25.8803V25.1476C188.782 24.4148 188.613 23.8485 188.309 23.5155C188.005 23.1491 187.6 22.9825 187.094 22.9825C186.587 22.9825 186.182 23.1491 185.878 23.5155C185.574 23.8819 185.439 24.4148 185.439 25.1476V25.8803C185.439 26.6131 185.574 27.1794 185.878 27.5124Z" fill="black"/>
<path d="M191.584 21.9501H193.103V24.8146H196.006V21.9501H197.526V29.0447H196.006V25.947H193.103V29.0447H191.584V21.9501Z" fill="black"/>
<path d="M199.045 21.9501H200.564V24.8146H203.467V21.9501H204.986V29.0447H203.467V25.947H200.564V29.0447H199.045V21.9501Z" fill="black"/>
<path d="M206.506 21.9501H208.025V24.5148H209.24C210.152 24.5148 210.827 24.7146 211.232 25.1477C211.637 25.5807 211.874 26.1136 211.874 26.7797C211.874 27.4459 211.671 28.0121 211.232 28.4452C210.827 28.8448 210.152 29.078 209.24 29.078H206.506V21.9834V21.9501ZM208.025 25.6473V27.9455H209.139C209.578 27.9455 209.882 27.8456 210.084 27.6458C210.287 27.4459 210.354 27.1461 210.354 26.8131C210.354 26.48 210.253 26.1802 210.084 25.9804C209.882 25.7805 209.578 25.6806 209.139 25.6806H208.025V25.6473ZM212.582 29.078H214.102V21.9834H212.582V29.078Z" fill="black"/>
<path d="M220.111 29.0446V24.7146C220.111 24.7146 220.111 24.4814 220.111 24.3482C220.111 24.2149 220.111 24.0817 220.111 23.9818H220.077C220.077 23.9818 219.976 24.2149 219.908 24.3149C219.841 24.4148 219.807 24.5147 219.74 24.648L217.275 29.0779H215.621V21.9833H217.14V26.3134C217.14 26.3134 217.14 26.5465 217.14 26.6797C217.14 26.813 217.14 26.9462 217.14 27.0461H217.174C217.174 27.0461 217.275 26.8463 217.309 26.7464C217.343 26.6464 217.444 26.5132 217.478 26.4133L219.942 21.9833H221.596V29.0779H220.077L220.111 29.0446ZM219.402 20.1514C219.571 20.0181 219.74 19.7517 219.841 19.4186L220.719 19.8849C220.516 20.3845 220.246 20.7176 219.908 20.9174C219.571 21.1173 219.166 21.2172 218.693 21.2172C218.22 21.2172 217.849 21.1173 217.478 20.9174C217.106 20.7176 216.836 20.3512 216.667 19.8849L217.545 19.4186C217.647 19.7517 217.782 20.0181 217.984 20.1514C218.187 20.2846 218.423 20.3512 218.727 20.3512C219.031 20.3512 219.267 20.2846 219.436 20.1514H219.402Z" fill="black"/>
<path d="M116.738 41.0355H111.404V33.9409H112.923V39.9031H115.725V33.9409H117.244V39.9031H118.122V42.4678H116.704V41.0689L116.738 41.0355Z" fill="black"/>
<path d="M119.033 33.9409H123.895V35.0734H120.553V36.8387H123.456V37.9712H120.553V39.9364H123.929V41.0689H119.033V33.9742V33.9409Z" fill="black"/>
<path d="M125.009 33.9409H126.528V36.8054H129.431V33.9409H130.951V41.0355H129.431V37.9379H126.528V41.0355H125.009V33.9409Z" fill="black"/>
<path d="M131.828 33.9409H137.635V35.0734H135.508V41.0355H133.989V35.0734H131.862V33.9409H131.828Z" fill="black"/>
<path d="M138.479 33.9409H141.214C142.058 33.9409 142.699 34.1408 143.138 34.5405C143.577 34.9402 143.813 35.5064 143.813 36.2392C143.813 36.972 143.577 37.5382 143.138 37.9379C142.699 38.3376 142.058 38.5374 141.214 38.5374H139.998V41.0355H138.479V33.9409ZM141.079 37.4383C141.551 37.4383 141.855 37.3383 142.058 37.1052C142.26 36.872 142.328 36.6056 142.328 36.2392C142.328 35.8728 142.226 35.573 142.058 35.3732C141.889 35.1733 141.551 35.0734 141.079 35.0734H139.998V37.4383H141.079Z" fill="black"/>
<path d="M111.404 45.9319H117.244V53.0265H115.725V47.0644H112.923V53.0265H111.404V45.9319Z" fill="black"/>
<path d="M118.797 45.9319H121.532C122.376 45.9319 123.017 46.1317 123.456 46.5314C123.895 46.9311 124.131 47.4974 124.131 48.2301C124.131 48.9629 123.895 49.5292 123.456 49.9289C123.017 50.3286 122.376 50.5284 121.532 50.5284H120.316V53.0265H118.797V45.9319ZM121.397 49.4292C121.869 49.4292 122.173 49.3293 122.376 49.0962C122.578 48.863 122.646 48.5965 122.646 48.2301C122.646 47.8638 122.544 47.564 122.376 47.3641C122.207 47.1643 121.869 47.0644 121.397 47.0644H120.316V49.4292H121.397Z" fill="black"/>
<path d="M124.874 49.2627C124.874 48.1303 125.178 47.2642 125.785 46.6647C126.393 46.0652 127.17 45.7654 128.115 45.7654C129.06 45.7654 129.837 46.0652 130.444 46.6647C131.052 47.2642 131.356 48.1303 131.356 49.2627V49.6957C131.356 50.8282 131.052 51.6942 130.444 52.2938C129.837 52.8933 129.06 53.1931 128.115 53.1931C127.17 53.1931 126.393 52.8933 125.785 52.2938C125.178 51.6942 124.874 50.8282 124.874 49.6957V49.2627ZM126.899 51.4944C127.203 51.8608 127.608 52.0273 128.115 52.0273C128.621 52.0273 129.026 51.8608 129.33 51.4944C129.634 51.128 129.803 50.5951 129.803 49.8623V49.1295C129.803 48.3967 129.634 47.8305 129.33 47.4974C129.026 47.131 128.621 46.9645 128.115 46.9645C127.608 46.9645 127.203 47.131 126.899 47.4974C126.596 47.8638 126.461 48.3967 126.461 49.1295V49.8623C126.461 50.5951 126.596 51.1613 126.899 51.4944Z" fill="black"/>
<path d="M137.129 46.7312H137.264C138.378 46.7312 139.222 46.9644 139.762 47.464C140.336 47.9303 140.606 48.5965 140.606 49.4292C140.606 50.2619 140.336 50.928 139.762 51.3944C139.188 51.8607 138.378 52.1271 137.264 52.1271H137.129V53.1597H135.677V52.1271H135.542C134.428 52.1271 133.618 51.894 133.044 51.3944C132.47 50.928 132.2 50.2619 132.2 49.4292C132.2 48.5965 132.47 47.9303 133.044 47.464C133.618 46.9977 134.428 46.7312 135.542 46.7312H135.677V45.8319H137.129V46.7312ZM134.124 48.2301C133.854 48.4966 133.719 48.8963 133.719 49.3959C133.719 49.8955 133.854 50.2952 134.124 50.595C134.394 50.8947 134.867 50.9947 135.542 50.9947H135.677V47.7971H135.542C134.867 47.7971 134.394 47.9303 134.124 48.1968V48.2301ZM137.129 47.8304V51.028H137.264C137.939 51.028 138.412 50.8947 138.682 50.6283C138.952 50.3618 139.087 49.9621 139.087 49.4625C139.087 48.9629 138.952 48.5632 138.682 48.2967C138.412 48.0302 137.939 47.8637 137.264 47.8637H137.129V47.8304Z" fill="black"/>
<path d="M141.72 45.9319H146.582V47.0644H143.239V48.8297H146.143V49.9622H143.239V51.9273H146.615V53.0598H141.72V45.9652V45.9319Z" fill="black"/>
<path d="M147.426 49.2627C147.426 48.1303 147.729 47.2642 148.303 46.6647C148.877 46.0652 149.687 45.7654 150.633 45.7654C151.544 45.7654 152.253 45.9985 152.793 46.4649C153.334 46.9312 153.604 47.5307 153.604 48.2635V48.3967H152.084V48.2635C152.084 47.8305 151.949 47.4974 151.713 47.2642C151.477 47.0311 151.105 46.9312 150.633 46.9312C150.16 46.9312 149.755 47.0977 149.451 47.4308C149.147 47.7639 149.012 48.3301 149.012 49.0962V49.8623C149.012 50.5617 149.147 51.128 149.451 51.4611C149.755 51.8275 150.16 51.994 150.667 51.994C151.139 51.994 151.477 51.8608 151.713 51.6276C151.949 51.3945 152.084 51.0614 152.084 50.6617V50.5284H153.604V50.6617C153.604 51.3945 153.3 51.994 152.793 52.4603C152.287 52.9266 151.578 53.1598 150.667 53.1598C149.687 53.1598 148.911 52.86 148.337 52.2605C147.729 51.6609 147.459 50.7949 147.459 49.6624V49.2294L147.426 49.2627Z" fill="black"/>
<path d="M154.38 49.2627C154.38 48.1303 154.684 47.2642 155.258 46.6647C155.832 46.0652 156.642 45.7654 157.587 45.7654C158.499 45.7654 159.208 45.9985 159.748 46.4649C160.288 46.9312 160.558 47.5307 160.558 48.2635V48.3967H159.039V48.2635C159.039 47.8305 158.904 47.4974 158.668 47.2642C158.431 47.0311 158.06 46.9312 157.587 46.9312C157.115 46.9312 156.71 47.0977 156.406 47.4308C156.102 47.7639 155.967 48.3301 155.967 49.0962V49.8623C155.967 50.5617 156.102 51.128 156.406 51.4611C156.71 51.8275 157.115 51.994 157.621 51.994C158.094 51.994 158.431 51.8608 158.668 51.6276C158.904 51.3945 159.039 51.0614 159.039 50.6617V50.5284H160.558V50.6617C160.558 51.3945 160.254 51.994 159.748 52.4603C159.242 52.9266 158.533 53.1598 157.621 53.1598C156.642 53.1598 155.866 52.86 155.292 52.2605C154.684 51.6609 154.414 50.7949 154.414 49.6624V49.2294L154.38 49.2627Z" fill="black"/>
<path d="M166.061 53.0265V48.6965C166.061 48.6965 166.061 48.4633 166.061 48.3301C166.061 48.1969 166.061 48.0636 166.061 47.9637H166.027C166.027 47.9637 165.926 48.1969 165.859 48.2968C165.791 48.3967 165.757 48.4966 165.69 48.6299L163.225 53.0598H161.571V45.9652H163.09V50.2953C163.09 50.2953 163.09 50.5284 163.09 50.6617C163.09 50.7949 163.09 50.9281 163.09 51.028H163.124C163.124 51.028 163.225 50.8282 163.259 50.7283C163.293 50.6283 163.394 50.4951 163.428 50.3952L165.892 45.9652H167.547V53.0598H166.027L166.061 53.0265Z" fill="black"/>
<path d="M168.829 49.2627C168.829 48.1303 169.133 47.2642 169.741 46.6647C170.349 46.0652 171.125 45.7654 172.07 45.7654C173.016 45.7654 173.792 46.0652 174.4 46.6647C175.008 47.2642 175.311 48.1303 175.311 49.2627V49.6957C175.311 50.8282 175.008 51.6942 174.4 52.2938C173.792 52.8933 173.016 53.1931 172.07 53.1931C171.125 53.1931 170.349 52.8933 169.741 52.2938C169.133 51.6942 168.829 50.8282 168.829 49.6957V49.2627ZM170.855 51.4944C171.159 51.8608 171.564 52.0273 172.07 52.0273C172.577 52.0273 172.982 51.8608 173.286 51.4944C173.59 51.128 173.758 50.5951 173.758 49.8623V49.1295C173.758 48.3967 173.59 47.8305 173.286 47.4974C172.982 47.131 172.577 46.9645 172.07 46.9645C171.564 46.9645 171.159 47.131 170.855 47.4974C170.551 47.8638 170.416 48.3967 170.416 49.1295V49.8623C170.416 50.5951 170.551 51.1613 170.855 51.4944Z" fill="black"/>
<path d="M176.56 45.9319H178.08V48.7964H180.983V45.9319H182.502V53.0265H180.983V49.9289H178.08V53.0265H176.56V45.9319Z" fill="black"/>
<path d="M185.844 45.8985H187.431L190.2 53.0265H188.579L186.722 47.997C186.722 47.997 186.655 47.7971 186.621 47.6639C186.587 47.5306 186.587 47.464 186.553 47.3641H186.52C186.52 47.3641 186.486 47.5639 186.452 47.6639C186.452 47.7638 186.385 47.8637 186.351 47.9636L184.494 52.9932H183.076L185.811 45.8652L185.844 45.8985ZM185.034 50.3618H188.208L188.545 51.461H184.663L185 50.3618H185.034Z" fill="black"/>
<path d="M196.783 45.9319V53.0265H195.264V47.0644H192.934L192.732 50.3952C192.698 51.2945 192.529 51.994 192.225 52.4603C191.955 52.9266 191.449 53.1597 190.74 53.1597C190.638 53.1597 190.537 53.1597 190.436 53.1597C190.335 53.1597 190.2 53.1597 190.098 53.0931V51.8607C190.098 51.8607 190.233 51.894 190.301 51.9273C190.368 51.9273 190.436 51.9273 190.503 51.9273C190.841 51.9273 191.044 51.7941 191.179 51.5276C191.314 51.2612 191.381 50.8282 191.415 50.162L191.651 45.9319H196.715H196.783Z" fill="black"/>
<path d="M198.336 45.9319H199.855V48.4966H201.07C201.982 48.4966 202.657 48.6965 203.062 49.1295C203.467 49.5625 203.704 50.0954 203.704 50.7616C203.704 51.4277 203.501 51.994 203.062 52.427C202.657 52.8267 201.982 53.0598 201.07 53.0598H198.336V45.9652V45.9319ZM199.855 49.6291V51.9273H200.969C201.408 51.9273 201.712 51.8274 201.914 51.6276C202.117 51.4277 202.184 51.1279 202.184 50.7949C202.184 50.4618 202.083 50.162 201.914 49.9622C201.712 49.7623 201.408 49.6624 200.969 49.6624H199.855V49.6291Z" fill="black"/>
<path d="M204.683 45.9319H206.202V48.7964H209.105V45.9319H210.624V53.0265H209.105V49.9289H206.202V53.0265H204.683V45.9319Z" fill="black"/>
<path d="M211.874 49.2627C211.874 48.1303 212.177 47.2642 212.785 46.6647C213.393 46.0652 214.169 45.7654 215.114 45.7654C216.06 45.7654 216.836 46.0652 217.444 46.6647C218.052 47.2642 218.355 48.1303 218.355 49.2627V49.6957C218.355 50.8282 218.052 51.6942 217.444 52.2938C216.836 52.8933 216.06 53.1931 215.114 53.1931C214.169 53.1931 213.393 52.8933 212.785 52.2938C212.177 51.6942 211.874 50.8282 211.874 49.6957V49.2627ZM213.899 51.4944C214.203 51.8608 214.608 52.0273 215.114 52.0273C215.621 52.0273 216.026 51.8608 216.33 51.4944C216.634 51.128 216.803 50.5951 216.803 49.8623V49.1295C216.803 48.3967 216.634 47.8305 216.33 47.4974C216.026 47.131 215.621 46.9645 215.114 46.9645C214.608 46.9645 214.203 47.131 213.899 47.4974C213.595 47.8638 213.46 48.3967 213.46 49.1295V49.8623C213.46 50.5951 213.595 51.1613 213.899 51.4944Z" fill="black"/>
<path d="M219.605 45.9319H224.23V47.0644H221.124V53.0265H219.605V45.9319Z" fill="black"/>
<path d="M224.804 49.2627C224.804 48.1303 225.108 47.2642 225.715 46.6647C226.323 46.0652 227.099 45.7654 228.045 45.7654C228.99 45.7654 229.766 46.0652 230.374 46.6647C230.982 47.2642 231.286 48.1303 231.286 49.2627V49.6957C231.286 50.8282 230.982 51.6942 230.374 52.2938C229.766 52.8933 228.99 53.1931 228.045 53.1931C227.099 53.1931 226.323 52.8933 225.715 52.2938C225.108 51.6942 224.804 50.8282 224.804 49.6957V49.2627ZM226.829 51.4944C227.133 51.8608 227.538 52.0273 228.045 52.0273C228.551 52.0273 228.956 51.8608 229.26 51.4944C229.564 51.128 229.733 50.5951 229.733 49.8623V49.1295C229.733 48.3967 229.564 47.8305 229.26 47.4974C228.956 47.131 228.551 46.9645 228.045 46.9645C227.538 46.9645 227.133 47.131 226.829 47.4974C226.525 47.8638 226.39 48.3967 226.39 49.1295V49.8623C226.39 50.5951 226.525 51.1613 226.829 51.4944Z" fill="black"/>
<path d="M111.404 57.9227H113.328L115.05 62.5193C115.05 62.5193 115.117 62.7191 115.151 62.819C115.151 62.9189 115.218 63.0189 115.218 63.1521H115.252C115.252 63.1521 115.286 62.9189 115.32 62.819C115.353 62.7191 115.387 62.6192 115.421 62.5193L117.143 57.9227H119.101V65.0174H117.582V60.4875C117.582 60.4875 117.582 60.2543 117.582 60.1211C117.582 59.9878 117.582 59.8546 117.582 59.7547H117.548C117.548 59.7547 117.514 59.9878 117.48 60.1211C117.48 60.2543 117.413 60.3875 117.379 60.4875L115.691 65.0174H114.442L112.754 60.4875C112.754 60.4875 112.686 60.2543 112.653 60.1211C112.653 59.9878 112.585 59.8546 112.585 59.7547H112.551C112.551 59.7547 112.551 59.9878 112.551 60.1211C112.551 60.2543 112.551 60.3875 112.551 60.4875V65.0174H111.302V57.9227H111.404Z" fill="black"/>
<path d="M122.511 57.8895H124.097L126.866 65.0174H125.245L123.388 59.9879C123.388 59.9879 123.321 59.7881 123.287 59.6548C123.253 59.5216 123.253 59.455 123.22 59.3551H123.186C123.186 59.3551 123.152 59.5549 123.118 59.6548C123.118 59.7548 123.051 59.8547 123.017 59.9546L121.16 64.9841H119.742L122.477 57.8562L122.511 57.8895ZM121.7 62.3528H124.874L125.211 63.452H121.329L121.667 62.3528H121.7Z" fill="black"/>
<path d="M127.271 61.2536C127.271 60.1211 127.575 59.2551 128.149 58.6555C128.722 58.056 129.533 57.7562 130.478 57.7562C131.39 57.7562 132.098 57.9894 132.639 58.4557C133.179 58.922 133.449 59.5216 133.449 60.2543V60.3876H131.93V60.2543C131.93 59.8213 131.795 59.4882 131.558 59.2551C131.322 59.0219 130.951 58.922 130.478 58.922C130.005 58.922 129.6 59.0885 129.296 59.4216C128.993 59.7547 128.857 60.3209 128.857 61.087V61.8531C128.857 62.5526 128.993 63.1188 129.296 63.4519C129.6 63.8183 130.005 63.9848 130.512 63.9848C130.984 63.9848 131.322 63.8516 131.558 63.6185C131.795 63.3853 131.93 63.0522 131.93 62.6525V62.5193H133.449V62.6525C133.449 63.3853 133.145 63.9848 132.639 64.4512C132.132 64.9175 131.423 65.1506 130.512 65.1506C129.533 65.1506 128.756 64.8509 128.182 64.2513C127.575 63.6518 127.305 62.7857 127.305 61.6533V61.2203L127.271 61.2536Z" fill="black"/>
<path d="M133.82 57.9227H139.627V59.0552H137.5V65.0174H135.981V59.0552H133.854V57.9227H133.82Z" fill="black"/>
<path d="M140.505 57.9227H145.366V59.0552H142.024V60.8205H144.927V61.953H142.024V63.9182H145.4V65.0507H140.505V57.956V57.9227Z" fill="black"/>
<path d="M146.48 57.9227H149.215C150.059 57.9227 150.7 58.1226 151.139 58.5223C151.578 58.922 151.814 59.4882 151.814 60.221C151.814 60.9538 151.578 61.52 151.139 61.9197C150.7 62.3194 150.059 62.5193 149.215 62.5193H147.999V65.0174H146.48V57.9227ZM149.08 61.4201C149.552 61.4201 149.856 61.3202 150.059 61.087C150.261 60.8538 150.329 60.5874 150.329 60.221C150.329 59.8546 150.228 59.5548 150.059 59.355C149.89 59.1551 149.552 59.0552 149.08 59.0552H147.999V61.4201H149.08Z" fill="black"/>
<path d="M152.557 61.2536C152.557 60.1211 152.861 59.2551 153.435 58.6555C154.009 58.056 154.819 57.7562 155.764 57.7562C156.676 57.7562 157.385 57.9894 157.925 58.4557C158.465 58.922 158.735 59.5216 158.735 60.2543V60.3876H157.216V60.2543C157.216 59.8213 157.081 59.4882 156.845 59.2551C156.608 59.0219 156.237 58.922 155.764 58.922C155.292 58.922 154.887 59.0885 154.583 59.4216C154.279 59.7547 154.144 60.3209 154.144 61.087V61.8531C154.144 62.5526 154.279 63.1188 154.583 63.4519C154.887 63.8183 155.292 63.9848 155.798 63.9848C156.271 63.9848 156.608 63.8516 156.845 63.6185C157.081 63.3853 157.216 63.0522 157.216 62.6525V62.5193H158.735V62.6525C158.735 63.3853 158.431 63.9848 157.925 64.4512C157.419 64.9175 156.71 65.1506 155.798 65.1506C154.819 65.1506 154.043 64.8509 153.469 64.2513C152.861 63.6518 152.591 62.7857 152.591 61.6533V61.2203L152.557 61.2536Z" fill="black"/>
<path d="M159.107 57.9227H164.913V59.0552H162.786V65.0174H161.267V59.0552H159.14V57.9227H159.107Z" fill="black"/>
<path d="M165.791 57.9227H168.492C169.302 57.9227 169.91 58.0893 170.382 58.389C170.855 58.6888 171.058 59.1551 171.058 59.8213C171.058 60.221 170.956 60.5208 170.788 60.7872C170.619 61.0537 170.382 61.2202 170.112 61.2868C170.45 61.3868 170.72 61.5866 170.923 61.8864C171.125 62.1862 171.26 62.5526 171.26 63.0189C171.26 63.6517 171.024 64.1847 170.551 64.5177C170.079 64.8841 169.437 65.0507 168.661 65.0507H165.825V57.956L165.791 57.9227ZM168.458 60.8538C168.829 60.8538 169.133 60.7872 169.302 60.6207C169.471 60.4541 169.572 60.221 169.572 59.9212C169.572 59.6214 169.471 59.3883 169.302 59.2551C169.133 59.0885 168.863 59.0219 168.458 59.0219H167.31V60.8872H168.458V60.8538ZM168.593 63.9848C168.998 63.9848 169.268 63.8849 169.437 63.685C169.606 63.4852 169.707 63.2187 169.707 62.9189C169.707 62.6192 169.606 62.3527 169.437 62.1529C169.268 61.953 168.964 61.8531 168.593 61.8531H167.31V63.9848H168.593Z" fill="black"/>
<path d="M174.265 57.8895H175.852L178.62 65.0174H176.999L175.143 59.9879C175.143 59.9879 175.075 59.7881 175.041 59.6548C175.008 59.5216 175.008 59.455 174.974 59.3551H174.94C174.94 59.3551 174.906 59.5549 174.872 59.6548C174.872 59.7548 174.805 59.8547 174.771 59.9546L172.914 64.9841H171.496L174.231 57.8562L174.265 57.8895ZM173.455 62.3528H176.628L176.966 63.452H173.083L173.421 62.3528H173.455Z" fill="black"/>
<path d="M181.489 61.2536C181.489 60.1211 181.793 59.2551 182.367 58.6555C182.941 58.056 183.751 57.7562 184.697 57.7562C185.608 57.7562 186.317 57.9894 186.857 58.4557C187.397 58.922 187.668 59.5216 187.668 60.2543V60.3876H186.148V60.2543C186.148 59.8213 186.013 59.4882 185.777 59.2551C185.541 59.0219 185.169 58.922 184.697 58.922C184.224 58.922 183.819 59.0885 183.515 59.4216C183.211 59.7547 183.076 60.3209 183.076 61.087V61.8531C183.076 62.5526 183.211 63.1188 183.515 63.4519C183.819 63.8183 184.224 63.9848 184.73 63.9848C185.203 63.9848 185.541 63.8516 185.777 63.6185C186.013 63.3853 186.148 63.0522 186.148 62.6525V62.5193H187.668V62.6525C187.668 63.3853 187.364 63.9848 186.857 64.4512C186.351 64.9175 185.642 65.1506 184.73 65.1506C183.751 65.1506 182.975 64.8509 182.401 64.2513C181.793 63.6518 181.523 62.7857 181.523 61.6533V61.2203L181.489 61.2536Z" fill="black"/>
<path d="M188.039 57.9227H193.846V59.0552H191.719V65.0174H190.2V59.0552H188.073V57.9227H188.039Z" fill="black"/>
<path d="M195.027 63.885C195.027 63.885 195.264 63.885 195.365 63.885C195.635 63.885 195.871 63.8183 196.074 63.7184C196.243 63.6185 196.445 63.4187 196.614 63.0856L194.014 57.8562H195.601L197.053 60.9538C197.154 61.1537 197.222 61.3202 197.255 61.4202C197.289 61.5201 197.323 61.6533 197.357 61.7532C197.357 61.7532 197.458 61.5201 197.458 61.4202C197.458 61.3202 197.559 61.1537 197.627 60.9538L198.943 57.8562H200.361L198.066 63.0523C197.728 63.8517 197.357 64.3846 196.985 64.6844C196.614 64.9841 196.175 65.1174 195.601 65.1174C195.399 65.1174 195.23 65.1174 195.095 65.1174C194.96 65.1174 194.858 65.0841 194.757 65.0508V63.8183C194.757 63.8183 194.96 63.8517 195.061 63.885H195.027Z" fill="black"/>
<path d="M206.404 65.0175H201.847V66.4164H200.429V63.8517H207.822V66.4164H206.404V65.0175ZM206.945 57.9228V65.0175H205.425V59.0553H203.028L202.893 61.6533C202.893 62.3195 202.792 62.8524 202.691 63.2521C202.59 63.6518 202.454 64.0182 202.286 64.318H200.868C201.07 63.9516 201.239 63.5852 201.34 63.1855C201.442 62.7858 201.509 62.2529 201.543 61.5534L201.746 57.8895H206.911L206.945 57.9228Z" fill="black"/>
<path d="M208.666 57.9227H213.528V59.0552H210.186V60.8205H213.089V61.953H210.186V63.9182H213.562V65.0507H208.666V57.956V57.9227Z" fill="black"/>
<path d="M214.676 57.9227H216.195V60.7872H219.098V57.9227H220.617V65.0174H219.098V61.9197H216.195V65.0174H214.676V57.9227Z" fill="black"/>
<path d="M221.461 57.9227H227.268V59.0552H225.141V65.0174H223.622V59.0552H221.495V57.9227H221.461Z" fill="black"/>
<path d="M227.876 61.2536C227.876 60.1211 228.18 59.2551 228.787 58.6555C229.395 58.056 230.172 57.7562 231.117 57.7562C232.062 57.7562 232.839 58.056 233.446 58.6555C234.054 59.2551 234.358 60.1211 234.358 61.2536V61.6866C234.358 62.8191 234.054 63.6851 233.446 64.2846C232.839 64.8842 232.062 65.1839 231.117 65.1839C230.172 65.1839 229.395 64.8842 228.787 64.2846C228.18 63.6851 227.876 62.8191 227.876 61.6866V61.2536ZM229.901 63.4852C230.205 63.8516 230.61 64.0181 231.117 64.0181C231.623 64.0181 232.028 63.8516 232.332 63.4852C232.636 63.1188 232.805 62.5859 232.805 61.8531V61.1203C232.805 60.3876 232.636 59.8213 232.332 59.4882C232.028 59.1219 231.623 58.9553 231.117 58.9553C230.61 58.9553 230.205 59.1219 229.901 59.4882C229.598 59.8546 229.463 60.3876 229.463 61.1203V61.8531C229.463 62.5859 229.598 63.1521 229.901 63.4852Z" fill="black"/>
<path d="M235.607 57.9227H238.308C239.118 57.9227 239.726 58.0893 240.198 58.389C240.671 58.6888 240.873 59.1551 240.873 59.8213C240.873 60.221 240.772 60.5208 240.603 60.7872C240.435 61.0537 240.198 61.2202 239.928 61.2868C240.266 61.3868 240.536 61.5866 240.738 61.8864C240.941 62.1862 241.076 62.5526 241.076 63.0189C241.076 63.6517 240.84 64.1847 240.367 64.5177C239.894 64.8841 239.253 65.0507 238.476 65.0507H235.641V57.956L235.607 57.9227ZM238.274 60.8538C238.645 60.8538 238.949 60.7872 239.118 60.6207C239.287 60.4541 239.388 60.221 239.388 59.9212C239.388 59.6214 239.287 59.3883 239.118 59.2551C238.949 59.0885 238.679 59.0219 238.274 59.0219H237.126V60.8872H238.274V60.8538ZM238.409 63.9848C238.814 63.9848 239.084 63.8849 239.253 63.685C239.422 63.4852 239.523 63.2187 239.523 62.9189C239.523 62.6192 239.422 62.3527 239.253 62.1529C239.084 61.953 238.78 61.8531 238.409 61.8531H237.126V63.9848H238.409Z" fill="black"/>
<path d="M111.404 69.9137H114.138C114.982 69.9137 115.624 70.1135 116.062 70.5132C116.501 70.9129 116.738 71.4792 116.738 72.212C116.738 72.9447 116.501 73.511 116.062 73.9107C115.624 74.3104 114.982 74.5102 114.138 74.5102H112.923V77.0083H111.404V69.9137ZM114.003 73.4111C114.476 73.4111 114.78 73.3111 114.982 73.078C115.185 72.8448 115.252 72.5783 115.252 72.212C115.252 71.8456 115.151 71.5458 114.982 71.3459C114.813 71.1461 114.476 71.0462 114.003 71.0462H112.923V73.4111H114.003Z" fill="black"/>
<path d="M117.784 69.9137H122.646V71.0462H119.303V72.8115H122.207V73.944H119.303V75.9092H122.679V77.0416H117.784V69.947V69.9137Z" fill="black"/>
<path d="M123.49 73.2445C123.49 72.1121 123.793 71.2461 124.367 70.6465C124.941 70.047 125.752 69.7472 126.697 69.7472C127.608 69.7472 128.317 69.9803 128.857 70.4467C129.398 70.913 129.668 71.5125 129.668 72.2453V72.3785H128.149V72.2453C128.149 71.8123 128.013 71.4792 127.777 71.2461C127.541 71.0129 127.169 70.913 126.697 70.913C126.224 70.913 125.819 71.0795 125.515 71.4126C125.211 71.7457 125.076 72.3119 125.076 73.078V73.8441C125.076 74.5436 125.211 75.1098 125.515 75.4429C125.819 75.8093 126.224 75.9758 126.731 75.9758C127.203 75.9758 127.541 75.8426 127.777 75.6094C128.013 75.3763 128.149 75.0432 128.149 74.6435V74.5103H129.668V74.6435C129.668 75.3763 129.364 75.9758 128.857 76.4421C128.351 76.9084 127.642 77.1416 126.731 77.1416C125.752 77.1416 124.975 76.8418 124.401 76.2423C123.793 75.6427 123.523 74.7767 123.523 73.6442V73.2112L123.49 73.2445Z" fill="black"/>
<path d="M130.681 69.9137H136.521V77.0083H135.002V71.0462H132.2V77.0083H130.681V69.9137Z" fill="black"/>
<path d="M138.412 75.8758C138.412 75.8758 138.648 75.8758 138.749 75.8758C139.019 75.8758 139.256 75.8092 139.458 75.7093C139.627 75.6093 139.83 75.4095 139.998 75.0764L137.399 69.847H138.986L140.437 72.9447C140.538 73.1445 140.606 73.3111 140.64 73.411C140.674 73.5109 140.707 73.6442 140.741 73.7441C140.741 73.7441 140.842 73.5109 140.842 73.411C140.842 73.3111 140.944 73.1445 141.011 72.9447L142.328 69.847H143.746L141.45 75.0431C141.112 75.8425 140.741 76.3754 140.37 76.6752C139.998 76.975 139.559 77.1082 138.986 77.1082C138.783 77.1082 138.614 77.1082 138.479 77.1082C138.344 77.1082 138.243 77.0749 138.142 77.0416V75.8092C138.142 75.8092 138.344 75.8425 138.445 75.8758H138.412Z" fill="black"/>
<path d="M144.488 69.9137H149.35V71.0462H146.008V72.6783H147.358C148.134 72.6783 148.742 72.8781 149.181 73.2445C149.62 73.6109 149.822 74.1438 149.822 74.8433C149.822 75.5428 149.62 76.0757 149.181 76.4421C148.742 76.8085 148.134 77.0083 147.358 77.0083H144.488V69.9137ZM146.008 75.9092H147.223C147.628 75.9092 147.932 75.8092 148.101 75.6094C148.27 75.4095 148.371 75.1764 148.371 74.8433C148.371 74.5102 148.27 74.2771 148.101 74.0772C147.932 73.8774 147.628 73.8107 147.223 73.8107H146.008V75.9092Z" fill="black"/>
<path d="M156.845 69.9137V77.0083H155.325V71.0462H152.996L152.793 74.377C152.76 75.2763 152.591 75.9758 152.287 76.4421C152.017 76.9084 151.51 77.1416 150.802 77.1416C150.7 77.1416 150.599 77.1416 150.498 77.1416C150.396 77.1416 150.261 77.1416 150.16 77.0749V75.8425C150.16 75.8425 150.295 75.8759 150.363 75.9092C150.43 75.9092 150.498 75.9092 150.565 75.9092C150.903 75.9092 151.105 75.7759 151.24 75.5095C151.375 75.243 151.443 74.81 151.477 74.1438L151.713 69.9137H156.777H156.845Z" fill="black"/>
<path d="M162.854 77.0083V72.6783C162.854 72.6783 162.854 72.4451 162.854 72.3119C162.854 72.1787 162.854 72.0454 162.854 71.9455H162.82C162.82 71.9455 162.719 72.1787 162.651 72.2786C162.584 72.3785 162.55 72.4784 162.483 72.6117L160.018 77.0416H158.364V69.947H159.883V74.2771C159.883 74.2771 159.883 74.5102 159.883 74.6435C159.883 74.7767 159.883 74.9099 159.883 75.0099H159.917C159.917 75.0099 160.018 74.81 160.052 74.7101C160.086 74.6102 160.187 74.4769 160.221 74.377L162.685 69.947H164.339V77.0416H162.82L162.854 77.0083Z" fill="black"/>
<path d="M165.892 69.9137H167.412V77.0083H165.892V69.9137ZM167.884 72.7782L170.382 69.9137H172.003L168.424 73.944H166.736V72.8115H167.884V72.7782ZM167.715 73.7441L168.796 72.8448L172.273 77.0416H170.382L167.715 73.7774V73.7441Z" fill="black"/>
<path d="M177.303 77.0083V72.6783C177.303 72.6783 177.303 72.4451 177.303 72.3119C177.303 72.1787 177.303 72.0454 177.303 71.9455H177.269C177.269 71.9455 177.168 72.1787 177.101 72.2786C177.033 72.3785 176.999 72.4784 176.932 72.6117L174.467 77.0416H172.813V69.947H174.332V74.2771C174.332 74.2771 174.332 74.5102 174.332 74.6435C174.332 74.7767 174.332 74.9099 174.332 75.0099H174.366C174.366 75.0099 174.467 74.81 174.501 74.7101C174.535 74.6102 174.636 74.4769 174.67 74.377L177.134 69.947H178.789V77.0416H177.269L177.303 77.0083Z" fill="black"/>
<path d="M182.84 69.9137H184.764L186.486 74.5102C186.486 74.5102 186.553 74.7101 186.587 74.81C186.587 74.9099 186.655 75.0098 186.655 75.1431H186.689C186.689 75.1431 186.722 74.9099 186.756 74.81C186.79 74.7101 186.824 74.6101 186.857 74.5102L188.579 69.9137H190.537V77.0083H189.018V72.4784C189.018 72.4784 189.018 72.2453 189.018 72.112C189.018 71.9788 189.018 71.8456 189.018 71.7456H188.984C188.984 71.7456 188.95 71.9788 188.917 72.112C188.917 72.2453 188.849 72.3785 188.815 72.4784L187.127 77.0083H185.878L184.19 72.4784C184.19 72.4784 184.123 72.2453 184.089 72.112C184.089 71.9788 184.021 71.8456 184.021 71.7456H183.988C183.988 71.7456 183.988 71.9788 183.988 72.112C183.988 72.2453 183.988 72.3785 183.988 72.4784V77.0083H182.739V69.9137H182.84Z" fill="black"/>
<path d="M191.854 73.2445C191.854 72.1121 192.158 71.2461 192.765 70.6465C193.373 70.047 194.15 69.7472 195.095 69.7472C196.04 69.7472 196.817 70.047 197.424 70.6465C198.032 71.2461 198.336 72.1121 198.336 73.2445V73.6775C198.336 74.81 198.032 75.676 197.424 76.2756C196.817 76.8751 196.04 77.1749 195.095 77.1749C194.15 77.1749 193.373 76.8751 192.765 76.2756C192.158 75.676 191.854 74.81 191.854 73.6775V73.2445ZM193.879 75.4762C194.183 75.8426 194.588 76.0091 195.095 76.0091C195.601 76.0091 196.006 75.8426 196.31 75.4762C196.614 75.1098 196.783 74.5769 196.783 73.8441V73.1113C196.783 72.3785 196.614 71.8123 196.31 71.4792C196.006 71.1128 195.601 70.9463 195.095 70.9463C194.588 70.9463 194.183 71.1128 193.879 71.4792C193.576 71.8456 193.441 72.3785 193.441 73.1113V73.8441C193.441 74.5769 193.576 75.1431 193.879 75.4762Z" fill="black"/>
<path d="M199.551 69.9137H202.286C203.13 69.9137 203.771 70.1135 204.21 70.5132C204.649 70.9129 204.885 71.4792 204.885 72.212C204.885 72.9447 204.649 73.511 204.21 73.9107C203.771 74.3104 203.13 74.5102 202.286 74.5102H201.07V77.0083H199.551V69.9137ZM202.151 73.4111C202.623 73.4111 202.927 73.3111 203.13 73.078C203.332 72.8448 203.4 72.5783 203.4 72.212C203.4 71.8456 203.298 71.5458 203.13 71.3459C202.961 71.1461 202.623 71.0462 202.151 71.0462H201.07V73.4111H202.151Z" fill="black"/>
<path d="M211.198 77.0083H206.641V78.4072H205.223V75.8425H212.616V78.4072H211.198V77.0083ZM211.738 69.9137V77.0083H210.219V71.0462H207.822L207.687 73.6442C207.687 74.3104 207.586 74.8433 207.485 75.243C207.383 75.6427 207.248 76.0091 207.08 76.3088H205.662C205.864 75.9424 206.033 75.5761 206.134 75.1764C206.236 74.7767 206.303 74.2437 206.337 73.5443L206.539 69.8804H211.705L211.738 69.9137Z" fill="black"/>
<path d="M213.19 73.2445C213.19 72.1121 213.494 71.2461 214.102 70.6465C214.709 70.047 215.486 69.7472 216.431 69.7472C217.376 69.7472 218.153 70.047 218.761 70.6465C219.368 71.2461 219.672 72.1121 219.672 73.2445V73.6775C219.672 74.81 219.368 75.676 218.761 76.2756C218.153 76.8751 217.376 77.1749 216.431 77.1749C215.486 77.1749 214.709 76.8751 214.102 76.2756C213.494 75.676 213.19 74.81 213.19 73.6775V73.2445ZM215.216 75.4762C215.52 75.8426 215.925 76.0091 216.431 76.0091C216.938 76.0091 217.343 75.8426 217.647 75.4762C217.95 75.1098 218.119 74.5769 218.119 73.8441V73.1113C218.119 72.3785 217.95 71.8123 217.647 71.4792C217.343 71.1128 216.938 70.9463 216.431 70.9463C215.925 70.9463 215.52 71.1128 215.216 71.4792C214.912 71.8456 214.777 72.3785 214.777 73.1113V73.8441C214.777 74.5769 214.912 75.1431 215.216 75.4762Z" fill="black"/>
<path d="M220.921 69.9137H223.622C224.432 69.9137 225.04 70.0802 225.513 70.38C225.985 70.6798 226.188 71.1461 226.188 71.8123C226.188 72.212 226.087 72.5117 225.918 72.7782C225.749 73.0447 225.513 73.2112 225.243 73.2778C225.58 73.3777 225.85 73.5776 226.053 73.8774C226.255 74.1771 226.39 74.5435 226.39 75.0098C226.39 75.6427 226.154 76.1756 225.681 76.5087C225.209 76.8751 224.567 77.0416 223.791 77.0416H220.955V69.947L220.921 69.9137ZM223.588 72.8448C223.96 72.8448 224.263 72.7782 224.432 72.6117C224.601 72.4451 224.702 72.212 224.702 71.9122C224.702 71.6124 224.601 71.3793 224.432 71.246C224.263 71.0795 223.993 71.0129 223.588 71.0129H222.44V72.8781H223.588V72.8448ZM223.723 75.9758C224.128 75.9758 224.399 75.8758 224.567 75.676C224.736 75.4761 224.837 75.2097 224.837 74.9099C224.837 74.6101 224.736 74.3437 224.567 74.1438C224.399 73.944 224.095 73.8441 223.723 73.8441H222.44V75.9758H223.723Z" fill="black"/>
<path d="M232.028 77.0083V72.6783C232.028 72.6783 232.028 72.4451 232.028 72.3119C232.028 72.1787 232.028 72.0454 232.028 71.9455H231.995C231.995 71.9455 231.893 72.1787 231.826 72.2786C231.758 72.3785 231.724 72.4784 231.657 72.6117L229.192 77.0416H227.538V69.947H229.057V74.2771C229.057 74.2771 229.057 74.5102 229.057 74.6435C229.057 74.7767 229.057 74.9099 229.057 75.0099H229.091C229.091 75.0099 229.192 74.81 229.226 74.7101C229.26 74.6102 229.361 74.4769 229.395 74.377L231.859 69.947H233.514V77.0416H231.995L232.028 77.0083Z" fill="black"/>
<path d="M236.248 77.0083H234.628L236.451 73.7441H238.004L236.248 77.0083ZM240.232 77.0083H238.713V74.4436H237.025L236.721 74.3104C236.147 74.2438 235.674 74.0106 235.371 73.6109C235.067 73.2112 234.898 72.7449 234.898 72.1787C234.898 71.4792 235.134 70.9463 235.573 70.5466C236.046 70.1469 236.687 69.947 237.531 69.947H240.232V77.0416V77.0083ZM238.713 73.3111V71.0129H237.666C237.194 71.0129 236.89 71.1128 236.687 71.3127C236.518 71.5125 236.417 71.8123 236.417 72.1454C236.417 72.4784 236.518 72.7782 236.687 72.9781C236.856 73.2112 237.194 73.3111 237.666 73.3111H238.713Z" fill="black"/>
</g>
<defs>
<clipPath id="clip0_91_6310">
<rect width="240.338" height="88" fill="white" transform="translate(0.704224)"/>
</clipPath>
</defs>
</svg>
