<svg width="207" height="76" viewBox="0 0 207 76" fill="none" xmlns="http://www.w3.org/2000/svg">
<g clip-path="url(#clip0_40_460)">
<path d="M95.1338 12.9447V14.4118H96.0825C96.3413 14.4118 96.5425 14.3543 96.6863 14.2105C96.83 14.0954 96.9163 13.9228 96.9163 13.6927C96.9163 13.2036 96.6575 12.9447 96.14 12.9447H95.105H95.1338ZM95.1338 12.1681H95.9675C96.5425 12.1681 96.8013 11.9379 96.8013 11.5064C96.8013 11.2475 96.7438 11.0749 96.6 10.9886C96.4563 10.8736 96.2263 10.8161 95.9388 10.8161H95.1625V12.1681H95.1338ZM94.0125 15.3036V9.89554H95.91C96.5713 9.89554 97.06 10.0106 97.405 10.2695C97.75 10.5284 97.9225 10.9024 97.9225 11.3914C97.9225 11.6503 97.865 11.8804 97.7213 12.0818C97.5775 12.2831 97.405 12.427 97.1463 12.5133C97.4338 12.5708 97.635 12.7146 97.8075 12.9447C97.98 13.1461 98.0375 13.405 98.0375 13.7214C98.0375 14.2392 97.865 14.6419 97.5488 14.9008C97.2038 15.1597 96.7438 15.3036 96.14 15.3036H94.0413H94.0125Z" fill="black"/>
<path d="M103.701 13.4913C103.672 14.0666 103.442 14.5269 103.069 14.8721C102.695 15.2173 102.177 15.3611 101.545 15.3611C100.855 15.3611 100.309 15.131 99.9062 14.6707C99.5037 14.2104 99.3025 13.5488 99.3025 12.7434V12.4269C99.3025 11.9092 99.3887 11.4489 99.59 11.0462C99.7625 10.6435 100.05 10.3558 100.366 10.1257C100.711 9.9243 101.114 9.80923 101.545 9.80923C102.177 9.80923 102.666 9.98183 103.069 10.2983C103.442 10.6435 103.672 11.1037 103.73 11.7078H102.609C102.609 11.3626 102.494 11.1037 102.321 10.9599C102.149 10.816 101.89 10.7297 101.545 10.7297C101.171 10.7297 100.884 10.8736 100.711 11.1325C100.539 11.3914 100.424 11.8229 100.424 12.3694V12.7721C100.424 13.3475 100.51 13.779 100.682 14.0666C100.855 14.3255 101.142 14.4693 101.516 14.4693C101.861 14.4693 102.12 14.383 102.292 14.2392C102.465 14.0954 102.551 13.8365 102.58 13.5201H103.701V13.4913Z" fill="black"/>
<path d="M108.272 12.9447H106.145V14.383H108.646V15.3036H105.024V9.86676H108.646V10.7873H106.145V12.0817H108.272V12.9447Z" fill="black"/>
<path d="M111.09 12.4845H112.096C112.384 12.4845 112.614 12.4269 112.758 12.2831C112.901 12.1393 112.987 11.9379 112.987 11.679C112.987 11.4201 112.901 11.19 112.758 11.0462C112.614 10.8736 112.384 10.7873 112.096 10.7873H111.061V12.4845H111.09ZM111.09 13.3762V15.2748H109.969V9.86676H112.096C112.499 9.86676 112.873 9.95306 113.16 10.0969C113.476 10.2407 113.706 10.4708 113.879 10.7297C114.051 11.0174 114.138 11.3051 114.138 11.679C114.138 12.1968 113.965 12.6283 113.591 12.9447C113.217 13.2612 112.729 13.405 112.096 13.405H111.119L111.09 13.3762Z" fill="black"/>
<path d="M118.824 12.4557C118.824 11.8804 118.709 11.4489 118.508 11.1613C118.306 10.8736 118.019 10.7298 117.645 10.7298C117.271 10.7298 116.984 10.8736 116.783 11.1613C116.581 11.4489 116.466 11.8804 116.466 12.4557V12.7146C116.466 13.2612 116.581 13.6927 116.783 14.0091C116.984 14.3255 117.271 14.4694 117.674 14.4694C118.076 14.4694 118.335 14.3255 118.536 14.0379C118.738 13.7502 118.853 13.3187 118.853 12.7434V12.4845L118.824 12.4557ZM119.945 12.7146C119.945 13.2612 119.859 13.7214 119.658 14.1242C119.485 14.5269 119.198 14.8433 118.853 15.0447C118.508 15.2748 118.105 15.3611 117.645 15.3611C117.185 15.3611 116.783 15.246 116.438 15.0447C116.093 14.8145 115.805 14.5269 115.633 14.1242C115.431 13.7214 115.345 13.2612 115.345 12.7434V12.4845C115.345 11.9379 115.431 11.4777 115.633 11.075C115.834 10.6722 116.093 10.3558 116.438 10.1544C116.783 9.92431 117.185 9.83801 117.645 9.83801C118.105 9.83801 118.508 9.95308 118.853 10.1544C119.198 10.3846 119.485 10.6722 119.658 11.075C119.859 11.4777 119.945 11.9379 119.945 12.4845V12.7146Z" fill="black"/>
<path d="M125.609 13.4913C125.58 14.0666 125.35 14.5269 124.976 14.8721C124.574 15.2173 124.085 15.3611 123.452 15.3611C122.762 15.3611 122.216 15.131 121.814 14.6707C121.411 14.2104 121.21 13.5488 121.21 12.7434V12.4269C121.21 11.9092 121.296 11.4489 121.497 11.0462C121.67 10.6435 121.929 10.3558 122.274 10.1257C122.619 9.9243 123.021 9.80923 123.452 9.80923C124.085 9.80923 124.574 9.98183 124.976 10.2983C125.35 10.6435 125.58 11.1037 125.637 11.7078H124.516C124.487 11.3626 124.401 11.1037 124.229 10.9599C124.056 10.816 123.797 10.7297 123.452 10.7297C123.079 10.7297 122.791 10.8736 122.619 11.1325C122.417 11.3914 122.331 11.8229 122.331 12.3694V12.7721C122.331 13.3475 122.417 13.779 122.59 14.0666C122.762 14.3255 123.05 14.4693 123.424 14.4693C123.769 14.4693 124.027 14.383 124.2 14.2392C124.372 14.0954 124.459 13.8365 124.487 13.5201H125.609V13.4913Z" fill="black"/>
<path d="M131.215 13.4913C131.158 14.0666 130.956 14.5269 130.554 14.8721C130.18 15.2173 129.663 15.3611 129.03 15.3611C128.34 15.3611 127.794 15.131 127.391 14.6707C126.989 14.2104 126.788 13.5488 126.788 12.7434V12.4269C126.788 11.9092 126.874 11.4489 127.046 11.0462C127.248 10.6435 127.506 10.3558 127.823 10.1257C128.168 9.9243 128.57 9.80923 129.001 9.80923C129.634 9.80923 130.123 9.98183 130.525 10.2983C130.899 10.6435 131.129 11.1037 131.186 11.7078H130.065C130.036 11.3626 129.95 11.1037 129.778 10.9599C129.605 10.816 129.346 10.7297 129.001 10.7297C128.628 10.7297 128.34 10.8736 128.168 11.1325C127.966 11.3914 127.88 11.8229 127.88 12.3694V12.7721C127.88 13.3475 127.966 13.779 128.139 14.0666C128.311 14.3255 128.599 14.4693 128.973 14.4693C129.318 14.4693 129.576 14.383 129.749 14.2392C129.921 14.0954 130.008 13.8365 130.036 13.5201H131.158L131.215 13.4913Z" fill="black"/>
<path d="M135.815 9.86676H136.936V15.3036H135.815V11.7078L133.659 15.3036H132.537V9.86676H133.659V13.4913L135.815 9.86676Z" fill="black"/>
<path d="M141.996 8.45721C141.996 8.77364 141.881 9.0613 141.651 9.26266C141.421 9.46403 141.105 9.57909 140.702 9.57909C140.3 9.57909 140.012 9.46403 139.782 9.29143C139.552 9.09007 139.437 8.83117 139.437 8.48598H140.214C140.214 8.62981 140.271 8.77364 140.357 8.85994C140.444 8.94624 140.587 8.975 140.731 8.975C140.875 8.975 141.019 8.94624 141.105 8.85994C141.191 8.77364 141.249 8.65858 141.249 8.48598H142.025L141.996 8.45721ZM141.766 9.86675H142.887V15.2748H141.766V11.679L139.61 15.2748H138.489V9.86675H139.61V13.4625L141.766 9.86675Z" fill="black"/>
<path d="M148.724 13.4913C148.695 14.0666 148.465 14.5269 148.091 14.8721C147.689 15.2173 147.2 15.3611 146.568 15.3611C145.878 15.3611 145.331 15.131 144.929 14.6707C144.526 14.2104 144.325 13.5488 144.325 12.7434V12.4269C144.325 11.9092 144.411 11.4489 144.613 11.0462C144.785 10.6435 145.044 10.3558 145.389 10.1257C145.734 9.9243 146.136 9.80923 146.568 9.80923C147.2 9.80923 147.689 9.98183 148.091 10.2983C148.465 10.6435 148.695 11.1037 148.753 11.7078H147.631C147.603 11.3626 147.516 11.1037 147.344 10.9599C147.171 10.816 146.913 10.7297 146.568 10.7297C146.194 10.7297 145.906 10.8736 145.734 11.1325C145.561 11.3914 145.446 11.8229 145.446 12.3694V12.7721C145.446 13.3475 145.533 13.779 145.705 14.0666C145.878 14.3255 146.165 14.4693 146.539 14.4693C146.884 14.4693 147.143 14.383 147.315 14.2392C147.488 14.0954 147.574 13.8365 147.603 13.5201H148.724V13.4913Z" fill="black"/>
<path d="M151.829 13.0886H151.168V15.3036H150.046V9.86676H151.168V12.053H151.685L153.008 9.86676H154.388L152.691 12.4269L154.56 15.3036H153.209L151.829 13.0886Z" fill="black"/>
<path d="M158.643 12.4557C158.643 11.8804 158.556 11.4489 158.355 11.1613C158.154 10.8736 157.866 10.7298 157.493 10.7298C157.119 10.7298 156.831 10.8736 156.63 11.1613C156.429 11.4489 156.314 11.8804 156.314 12.4557V12.7146C156.314 13.2612 156.429 13.6927 156.63 14.0091C156.831 14.3255 157.119 14.4694 157.493 14.4694C157.866 14.4694 158.154 14.3255 158.355 14.0379C158.556 13.7502 158.643 13.3187 158.643 12.7434V12.4845V12.4557ZM159.764 12.7146C159.764 13.2612 159.678 13.7214 159.476 14.1242C159.275 14.5269 159.016 14.8433 158.671 15.0447C158.326 15.2748 157.924 15.3611 157.464 15.3611C157.004 15.3611 156.63 15.246 156.256 15.0447C155.911 14.8145 155.624 14.5269 155.423 14.1242C155.221 13.7214 155.135 13.2612 155.135 12.7434V12.4845C155.135 11.9379 155.221 11.4777 155.423 11.075C155.624 10.6722 155.883 10.3558 156.228 10.1544C156.573 9.92431 156.975 9.83801 157.435 9.83801C157.895 9.83801 158.298 9.95308 158.643 10.1544C158.988 10.3846 159.275 10.6722 159.448 11.075C159.649 11.4777 159.735 11.9379 159.735 12.4845V12.7146H159.764Z" fill="black"/>
<path d="M164.45 12.9447H162.294V14.383H164.824V15.3036H161.201V9.86676H164.824V10.7873H162.294V12.0817H164.45V12.9447Z" fill="black"/>
<path d="M98.3538 20.654V26.0621H97.2325V24.0197C96.8875 24.0772 96.5425 24.1347 96.1688 24.1347C95.4788 24.1347 94.9613 23.9909 94.6163 23.6745C94.2713 23.3868 94.07 22.9266 94.07 22.38V20.654H95.1913V22.3512C95.1913 22.6677 95.2775 22.8978 95.4212 23.0129C95.565 23.1567 95.8238 23.2142 96.1975 23.2142C96.5713 23.2142 96.9163 23.1855 97.2613 23.0992V20.6253H98.3825L98.3538 20.654Z" fill="black"/>
<path d="M103.184 23.732H101.056V25.1703H103.558V26.0908H99.935V20.6541H103.558V21.5746H101.056V22.869H103.184V23.732Z" fill="black"/>
<path d="M106.346 20.6541L107.726 24.595L109.106 20.6541H110.573V26.0908H109.451V24.595L109.566 22.0348L108.1 26.0908H107.353L105.886 22.0348L106.001 24.595V26.0908H104.88V20.6541H106.346Z" fill="black"/>
<path d="M116.581 26.0908H115.46V21.5746H113.304V26.0908H112.182V20.6541H116.581V26.0908Z" fill="black"/>
<path d="M121.44 20.6541H122.561V26.0908H121.44V22.4951L119.284 26.0908H118.163V20.6541H119.284V24.2786L121.44 20.6541Z" fill="black"/>
<path d="M127.42 23.243C127.42 22.6677 127.305 22.2362 127.104 21.9485C126.902 21.6609 126.615 21.517 126.241 21.517C125.868 21.517 125.58 21.6609 125.379 21.9485C125.178 22.2362 125.063 22.6677 125.063 23.243V23.5019C125.063 24.0484 125.149 24.4799 125.35 24.7964C125.551 25.1128 125.839 25.2566 126.241 25.2566C126.644 25.2566 126.902 25.1128 127.104 24.8251C127.305 24.5375 127.42 24.106 127.42 23.5306V23.2718V23.243ZM128.541 23.5019C128.541 24.0484 128.455 24.5087 128.254 24.9114C128.081 25.3141 127.794 25.6306 127.449 25.8319C127.104 26.0621 126.701 26.1484 126.241 26.1484C125.781 26.1484 125.379 26.0333 125.034 25.8319C124.689 25.6306 124.401 25.3141 124.229 24.9114C124.027 24.5087 123.941 24.0484 123.941 23.5306V23.2718C123.941 22.7252 124.027 22.2649 124.229 21.8622C124.43 21.4595 124.689 21.1431 125.034 20.9417C125.379 20.7116 125.781 20.6253 126.241 20.6253C126.701 20.6253 127.104 20.7403 127.449 20.9417C127.794 21.1718 128.081 21.4595 128.254 21.8622C128.455 22.2649 128.541 22.7252 128.541 23.2718V23.5019Z" fill="black"/>
<path d="M134.378 26.0908H133.256V23.7608H131.071V26.0908H129.95V20.6541H131.071V22.869H133.256V20.6541H134.378V26.0908Z" fill="black"/>
<path d="M137.396 24.0485H138.748L138.058 22.0061L137.396 24.0485ZM139.064 24.9402H137.109L136.735 26.0621H135.556L137.569 20.6541H138.604L140.645 26.0621H139.466L139.093 24.9402H139.064Z" fill="black"/>
<path d="M145.216 21.5746H143.549V26.0908H142.456V21.5746H140.818V20.6541H145.216V21.5746Z" fill="black"/>
<path d="M150.851 26.0908H149.759V23.7608H147.574V26.0908H146.453V20.6541H147.574V22.869H149.759V20.6541H150.851V26.0908Z" fill="black"/>
<path d="M155.739 23.243C155.739 22.6677 155.624 22.2362 155.423 21.9485C155.221 21.6609 154.934 21.517 154.56 21.517C154.186 21.517 153.899 21.6609 153.698 21.9485C153.496 22.2362 153.381 22.6677 153.381 23.243V23.5019C153.381 24.0484 153.496 24.4799 153.698 24.7964C153.899 25.1128 154.186 25.2566 154.56 25.2566C154.934 25.2566 155.221 25.1128 155.423 24.8251C155.624 24.5375 155.71 24.106 155.739 23.5306V23.2718V23.243ZM156.86 23.5019C156.86 24.0484 156.774 24.5087 156.573 24.9114C156.371 25.3141 156.113 25.6306 155.768 25.8319C155.423 26.0621 155.02 26.1484 154.56 26.1484C154.1 26.1484 153.726 26.0333 153.353 25.8319C153.008 25.6306 152.72 25.3141 152.548 24.9114C152.346 24.5087 152.26 24.0484 152.26 23.5306V23.2718C152.26 22.7252 152.346 22.2649 152.548 21.8622C152.72 21.4595 153.008 21.1431 153.353 20.9417C153.698 20.7116 154.1 20.6253 154.56 20.6253C155.02 20.6253 155.423 20.7403 155.768 20.9417C156.113 21.1718 156.4 21.4595 156.573 21.8622C156.774 22.2649 156.86 22.7252 156.86 23.2718V23.5019Z" fill="black"/>
<path d="M161.517 23.732H159.39V25.1703H161.891V26.0908H158.269V20.6541H161.891V21.5746H159.39V22.869H161.517V23.732Z" fill="black"/>
<path d="M95.3062 35.9576H97.3762V32.3331H95.9962L95.91 33.7714C95.8237 34.7207 95.6225 35.4686 95.3062 35.9576ZM99.0437 38.1726H98.0087V36.8494H94.7312V38.1726H93.6675L93.61 35.9576H94.0125C94.2425 35.785 94.415 35.4974 94.53 35.1522C94.645 34.807 94.7312 34.3467 94.76 33.8289L94.9037 31.4413H98.44V35.9576H99.0725L98.9862 38.1726H99.0437Z" fill="black"/>
<path d="M101.459 34.5193V35.9864H102.407C102.666 35.9864 102.867 35.9288 103.011 35.785C103.155 35.6699 103.241 35.4973 103.241 35.2672C103.241 34.7782 102.982 34.5193 102.465 34.5193H101.43H101.459ZM101.459 33.7426H102.292C102.867 33.7426 103.126 33.5125 103.126 33.081C103.126 32.8221 103.069 32.6495 102.925 32.5632C102.781 32.4481 102.551 32.3906 102.235 32.3906H101.459V33.7426ZM100.337 36.8781V31.4701H102.235C102.896 31.4701 103.385 31.5852 103.73 31.8441C104.075 32.1029 104.247 32.4769 104.247 32.9659C104.247 33.2248 104.19 33.455 104.046 33.6563C103.902 33.8577 103.73 34.0015 103.471 34.0878C103.759 34.1453 103.96 34.2892 104.132 34.5193C104.305 34.7207 104.362 34.9796 104.362 35.296C104.362 35.8138 104.19 36.2165 103.874 36.4754C103.529 36.7343 103.069 36.8781 102.465 36.8781H100.366H100.337Z" fill="black"/>
<path d="M109.049 31.4413H110.17V36.8781H109.049V33.2536L106.864 36.8781H105.771V31.4413H106.864V35.0659L109.049 31.4413Z" fill="black"/>
<path d="M116.351 34.6631H115.69V36.8781H114.598V34.6631H113.936L112.758 36.8781H111.349L113.045 33.9728L111.435 31.4413H112.815L114.023 33.6276H114.598V31.4413H115.69V33.6276H116.236L117.415 31.4413H118.795L117.214 33.944L118.881 36.8781H117.501L116.351 34.6631Z" fill="black"/>
<path d="M123.309 34.5193H121.181V35.9576H123.683V36.8781H120.06V31.4413H123.683V32.3619H121.181V33.6563H123.309V34.5193Z" fill="black"/>
<path d="M129.433 36.8781H128.311V34.5481H126.126V36.8781H125.005V31.4413H126.126V33.6563H128.311V31.4413H129.433V36.8781Z" fill="black"/>
<path d="M134.262 31.4413H135.384V36.8781H134.262V33.2536L132.106 36.8781H130.985V31.4413H132.106V35.0659L134.262 31.4413Z" fill="black"/>
<path d="M140.243 34.5193H138.086V35.9576H140.616V36.8781H136.994V31.4413H140.616V32.3619H138.086V33.6563H140.243V34.5193Z" fill="black"/>
<path d="M98.44 47.6654H97.3188V43.1491H95.1338V47.6654H94.0125V42.2286H98.44V47.6654Z" fill="black"/>
<path d="M103.299 44.8176C103.299 44.2423 103.184 43.8108 102.983 43.5231C102.781 43.2354 102.494 43.0916 102.12 43.0916C101.746 43.0916 101.459 43.2354 101.258 43.5231C101.056 43.8108 100.941 44.2423 100.941 44.8176V45.0765C100.941 45.623 101.056 46.0545 101.258 46.3709C101.459 46.6874 101.746 46.8312 102.149 46.8312C102.551 46.8312 102.81 46.6874 103.011 46.3997C103.213 46.112 103.327 45.6806 103.327 45.1052V44.8463L103.299 44.8176ZM104.42 45.0765C104.42 45.623 104.334 46.0833 104.133 46.486C103.931 46.8887 103.672 47.2052 103.327 47.4065C102.982 47.6366 102.58 47.7229 102.12 47.7229C101.66 47.7229 101.257 47.6079 100.912 47.4065C100.567 47.1764 100.28 46.8887 100.108 46.486C99.9063 46.0833 99.82 45.623 99.82 45.1052V44.8463C99.82 44.2998 99.9063 43.8395 100.108 43.4368C100.309 43.0341 100.567 42.7176 100.912 42.5163C101.257 42.2862 101.66 42.1999 102.12 42.1999C102.58 42.1999 102.982 42.3149 103.327 42.5163C103.672 42.7464 103.96 43.0341 104.133 43.4368C104.334 43.8395 104.42 44.2998 104.42 44.8463V45.0765Z" fill="black"/>
<path d="M112.758 47.6654H111.636V43.1491H109.48V47.6654H108.359V42.2286H112.758V47.6654Z" fill="black"/>
<path d="M115.489 44.8463H116.495C116.782 44.8463 117.012 44.7888 117.156 44.645C117.3 44.5011 117.386 44.2998 117.386 44.0409C117.386 43.782 117.3 43.5518 117.156 43.408C117.012 43.2354 116.782 43.1491 116.495 43.1491H115.46V44.8463H115.489ZM115.489 45.7381V47.6366H114.367V42.2286H116.466C116.869 42.2286 117.242 42.3149 117.53 42.4587C117.846 42.6026 118.076 42.8327 118.249 43.0916C118.421 43.3792 118.507 43.6669 118.507 44.0409C118.507 44.5587 118.335 44.9902 117.961 45.3066C117.587 45.623 117.099 45.7668 116.466 45.7668H115.489V45.7381Z" fill="black"/>
<path d="M123.194 44.8176C123.194 44.2423 123.108 43.8108 122.878 43.5231C122.676 43.2354 122.389 43.0916 122.015 43.0916C121.641 43.0916 121.354 43.2354 121.152 43.5231C120.951 43.8108 120.836 44.2423 120.836 44.8176V45.0765C120.836 45.623 120.951 46.0545 121.152 46.3709C121.354 46.6874 121.641 46.8312 122.044 46.8312C122.446 46.8312 122.705 46.6874 122.906 46.3997C123.107 46.112 123.222 45.6806 123.222 45.1052V44.8463L123.194 44.8176ZM124.315 45.0765C124.315 45.623 124.229 46.0833 124.027 46.486C123.855 46.8887 123.567 47.2052 123.222 47.4065C122.877 47.6366 122.475 47.7229 122.015 47.7229C121.555 47.7229 121.152 47.6079 120.807 47.4065C120.462 47.1764 120.175 46.8887 120.003 46.486C119.801 46.0833 119.715 45.623 119.715 45.1052V44.8463C119.715 44.2998 119.801 43.8395 120.003 43.4368C120.204 43.0341 120.462 42.7176 120.807 42.5163C121.152 42.2862 121.555 42.1999 122.015 42.1999C122.475 42.1999 122.877 42.3149 123.222 42.5163C123.567 42.7464 123.855 43.0341 124.027 43.4368C124.229 43.8395 124.315 44.2998 124.315 44.8463V45.0765Z" fill="black"/>
<path d="M128.944 43.6381V46.2559H129.03C129.404 46.2559 129.691 46.1408 129.892 45.9107C130.094 45.6805 130.209 45.3641 130.209 44.9614C130.209 44.5587 130.094 44.2135 129.892 43.9833C129.691 43.7532 129.404 43.6381 129.001 43.6381H128.944ZM127.794 43.6381C127.42 43.6381 127.132 43.7532 126.931 43.9833C126.73 44.2135 126.615 44.5587 126.615 44.9614C126.615 45.3641 126.73 45.6805 126.931 45.9107C127.132 46.1408 127.449 46.2559 127.822 46.2559H127.88V43.6381H127.822H127.794ZM128.944 42.7176H129.001C129.432 42.7176 129.806 42.8039 130.151 43.0053C130.496 43.2066 130.755 43.4655 130.956 43.8107C131.157 44.1559 131.244 44.5587 131.244 44.9901C131.244 45.6518 131.042 46.1696 130.611 46.5723C130.18 46.975 129.634 47.1764 128.915 47.1764V47.8668H127.851V47.1764H127.794C127.362 47.1764 126.989 47.0901 126.644 46.8887C126.299 46.7161 126.04 46.4572 125.839 46.112C125.666 45.7668 125.551 45.3929 125.551 44.9614C125.551 44.5299 125.637 44.1272 125.839 43.8107C126.04 43.4655 126.299 43.2066 126.644 43.0053C126.989 42.8039 127.362 42.7176 127.794 42.7176H127.909V41.9985H128.972V42.7176H128.944Z" fill="black"/>
<path d="M135.786 45.3066H133.659V46.7449H136.16V47.6654H132.537V42.2286H136.16V43.1491H133.659V44.4436H135.786V45.3066Z" fill="black"/>
<path d="M141.594 45.8531C141.565 46.4285 141.335 46.8887 140.961 47.2339C140.559 47.5791 140.07 47.7229 139.438 47.7229C138.748 47.7229 138.201 47.4928 137.799 47.0325C137.396 46.5723 137.195 45.9107 137.195 45.1052V44.76C137.195 44.2422 137.281 43.782 137.483 43.3792C137.655 42.9765 137.943 42.6889 138.259 42.4587C138.604 42.2574 139.006 42.1423 139.438 42.1423C140.07 42.1423 140.559 42.3149 140.961 42.6313C141.335 42.9765 141.565 43.4368 141.622 44.0409H140.501C140.473 43.6957 140.386 43.4368 140.214 43.2929C140.041 43.1491 139.783 43.0628 139.438 43.0628C139.064 43.0628 138.776 43.2066 138.604 43.4655C138.431 43.7244 138.316 44.1559 138.316 44.7025V45.1052C138.316 45.6805 138.403 46.112 138.575 46.3997C138.748 46.6586 139.035 46.8024 139.409 46.8024C139.754 46.8024 140.012 46.7161 140.185 46.5723C140.357 46.4285 140.444 46.1696 140.473 45.8531H141.594Z" fill="black"/>
<path d="M147.229 45.8531C147.171 46.4285 146.97 46.8887 146.596 47.2339C146.194 47.5791 145.705 47.7229 145.073 47.7229C144.383 47.7229 143.836 47.4928 143.434 47.0325C143.031 46.5723 142.83 45.9107 142.83 45.1052V44.76C142.83 44.2422 142.916 43.782 143.089 43.3792C143.29 42.9765 143.549 42.6889 143.894 42.4587C144.239 42.2574 144.613 42.1423 145.073 42.1423C145.705 42.1423 146.194 42.3149 146.596 42.6313C146.97 42.9765 147.2 43.4368 147.258 44.0409H146.136C146.108 43.6957 146.021 43.4368 145.849 43.2929C145.676 43.1491 145.418 43.0628 145.073 43.0628C144.699 43.0628 144.44 43.2066 144.239 43.4655C144.066 43.7244 143.951 44.1559 143.951 44.7025V45.1052C143.951 45.6805 144.038 46.112 144.21 46.3997C144.383 46.6586 144.67 46.8024 145.044 46.8024C145.389 46.8024 145.648 46.7161 145.82 46.5723C145.993 46.4285 146.079 46.1696 146.108 45.8531H147.229Z" fill="black"/>
<path d="M151.829 42.2286H152.95V47.6654H151.829V44.0696L149.644 47.6654H148.523V42.2286H149.644V45.8531L151.829 42.2286Z" fill="black"/>
<path d="M157.809 44.8176C157.809 44.2423 157.723 43.8108 157.521 43.5231C157.32 43.2354 157.033 43.0916 156.659 43.0916C156.285 43.0916 155.998 43.2354 155.796 43.5231C155.595 43.8108 155.48 44.2423 155.48 44.8176V45.0765C155.48 45.623 155.566 46.0545 155.796 46.3709C155.998 46.6874 156.285 46.8312 156.659 46.8312C157.033 46.8312 157.32 46.6874 157.521 46.3997C157.723 46.112 157.809 45.6806 157.809 45.1052V44.8463V44.8176ZM158.93 45.0765C158.93 45.623 158.844 46.0833 158.643 46.486C158.441 46.8887 158.183 47.2052 157.838 47.4065C157.493 47.6366 157.09 47.7229 156.63 47.7229C156.17 47.7229 155.796 47.6079 155.423 47.4065C155.078 47.1764 154.79 46.8887 154.618 46.486C154.416 46.0833 154.33 45.623 154.33 45.1052V44.8463C154.33 44.2998 154.416 43.8395 154.618 43.4368C154.819 43.0341 155.078 42.7176 155.423 42.5163C155.768 42.2862 156.17 42.1999 156.63 42.1999C157.09 42.1999 157.493 42.3149 157.838 42.5163C158.183 42.7464 158.47 43.0341 158.643 43.4368C158.844 43.8395 158.93 44.2998 158.93 44.8463V45.0765Z" fill="black"/>
<path d="M164.737 47.6654H163.645V45.3353H161.46V47.6654H160.339V42.2286H161.46V44.4436H163.645V42.2286H164.737V47.6654Z" fill="black"/>
<path d="M167.785 45.623H169.136L168.446 43.5806L167.785 45.623ZM169.424 46.5148H167.469L167.095 47.6366H165.916L167.929 42.2286H168.964L171.005 47.6366H169.826L169.453 46.5148H169.424Z" fill="black"/>
<path d="M176.755 42.2286V47.6366H175.634V43.1204H174.196L174.11 45.0477C174.081 45.6805 173.995 46.1983 173.88 46.5723C173.765 46.9462 173.564 47.2051 173.334 47.3777C173.075 47.5503 172.759 47.6366 172.327 47.6366H172.04V46.7449H172.241C172.529 46.6873 172.73 46.5148 172.845 46.2271C172.96 45.9394 173.046 45.4216 173.075 44.7025L173.161 42.2286H176.784H176.755Z" fill="black"/>
<path d="M179.457 45.0764V46.7449H180.349C180.636 46.7449 180.866 46.6586 181.039 46.5148C181.211 46.3709 181.297 46.1408 181.297 45.8819C181.297 45.623 181.211 45.4504 181.039 45.3066C180.866 45.1627 180.665 45.0764 180.377 45.0764H179.457ZM179.457 44.1847H180.32C180.952 44.1847 181.47 44.3285 181.844 44.645C182.217 44.9614 182.39 45.3641 182.39 45.8819C182.39 46.3997 182.217 46.8312 181.844 47.1476C181.47 47.464 180.981 47.6366 180.349 47.6366H178.307V42.2286H179.429V44.1847H179.457Z" fill="black"/>
<path d="M188.082 47.6654H186.961V45.3353H184.776V47.6654H183.684V42.2286H184.776V44.4436H186.961V42.2286H188.082V47.6654Z" fill="black"/>
<path d="M192.97 44.8176C192.97 44.2423 192.855 43.8108 192.654 43.5231C192.453 43.2354 192.165 43.0916 191.791 43.0916C191.418 43.0916 191.13 43.2354 190.929 43.5231C190.728 43.8108 190.613 44.2423 190.613 44.8176V45.0765C190.613 45.623 190.728 46.0545 190.929 46.3709C191.13 46.6874 191.418 46.8312 191.791 46.8312C192.165 46.8312 192.453 46.6874 192.654 46.3997C192.855 46.112 192.941 45.6806 192.97 45.1052V44.8463V44.8176ZM194.091 45.0765C194.091 45.623 194.005 46.0833 193.804 46.486C193.631 46.8887 193.344 47.2052 192.999 47.4065C192.654 47.6366 192.251 47.7229 191.791 47.7229C191.331 47.7229 190.958 47.6079 190.584 47.4065C190.239 47.1764 189.951 46.8887 189.75 46.486C189.549 46.0833 189.463 45.623 189.463 45.1052V44.8463C189.463 44.2998 189.549 43.8395 189.75 43.4368C189.923 43.0341 190.21 42.7176 190.555 42.5163C190.9 42.2862 191.303 42.1999 191.763 42.1999C192.223 42.1999 192.625 42.3149 192.97 42.5163C193.315 42.7464 193.603 43.0341 193.775 43.4368C193.976 43.8395 194.063 44.2998 194.063 44.8463V45.0765H194.091Z" fill="black"/>
<path d="M196.938 42.2286L198.346 46.1696L199.726 42.2286H201.193V47.6654H200.071V46.1696L200.186 43.6094L198.72 47.6654H197.944L196.477 43.6094L196.592 46.1696V47.6654H195.5V42.2286H196.938Z" fill="black"/>
<path d="M204.815 44.7888L205.793 42.2286H207L205.103 46.6873L204.959 46.975C204.671 47.464 204.24 47.7229 203.665 47.7229H203.263V46.8024C203.32 46.8024 203.406 46.8024 203.55 46.8024C203.694 46.8024 203.838 46.8024 203.924 46.7161C204.01 46.6586 204.096 46.5723 204.154 46.4285L204.298 46.0833L202.4 42.2286H203.608L204.815 44.7888Z" fill="black"/>
<path d="M95.4788 53.0159L96.8588 56.9569L98.2388 53.0159H99.705V58.4527H98.5838V56.9569L98.6988 54.3967L97.2325 58.4527H96.485L95.0188 54.3967L95.1338 56.9569V58.4527H94.0125V53.0159H95.4788Z" fill="black"/>
<path d="M102.753 56.4103H104.104L103.414 54.3679L102.753 56.4103ZM104.42 57.302H102.465L102.091 58.4239H100.913L102.925 53.0159H103.96L105.973 58.4239H104.794L104.42 57.302Z" fill="black"/>
<path d="M111.176 56.6404C111.147 57.2157 110.917 57.676 110.515 58.0212C110.141 58.3664 109.624 58.5102 108.991 58.5102C108.301 58.5102 107.755 58.2801 107.352 57.8198C106.95 57.3596 106.749 56.698 106.749 55.8925V55.5473C106.749 55.0295 106.835 54.5693 107.036 54.1665C107.209 53.7638 107.496 53.4762 107.812 53.246C108.157 53.0447 108.56 52.9296 108.991 52.9296C109.624 52.9296 110.112 53.1022 110.515 53.4186C110.889 53.7638 111.119 54.2241 111.176 54.8282H110.055C110.055 54.483 109.94 54.2241 109.767 54.0802C109.595 53.9364 109.336 53.8501 108.991 53.8501C108.617 53.8501 108.33 53.9939 108.157 54.2528C107.985 54.5117 107.87 54.9432 107.87 55.4898V55.8925C107.87 56.4678 107.956 56.8993 108.129 57.187C108.301 57.4459 108.589 57.5897 108.963 57.5897C109.308 57.5897 109.566 57.5034 109.739 57.3596C109.911 57.2157 109.997 56.9569 110.026 56.6404H111.147H111.176Z" fill="black"/>
<path d="M116.581 53.9364H114.914V58.4527H113.792V53.9364H112.182V53.0159H116.581V53.9364Z" fill="black"/>
<path d="M121.066 56.0939H118.939V57.5322H121.44V58.4527H117.818V53.0159H121.44V53.9364H118.939V55.2309H121.066V56.0939Z" fill="black"/>
<path d="M123.884 55.6336H124.89C125.178 55.6336 125.408 55.5761 125.551 55.4323C125.695 55.2884 125.781 55.0871 125.781 54.8282C125.781 54.5693 125.695 54.3391 125.551 54.1953C125.408 54.0227 125.178 53.9364 124.919 53.9364H123.884V55.6336ZM123.884 56.5254V58.4239H122.763V53.0159H124.861C125.264 53.0159 125.638 53.1022 125.925 53.246C126.241 53.3899 126.471 53.5912 126.644 53.8789C126.816 54.1665 126.903 54.4542 126.903 54.8282C126.903 55.346 126.73 55.7774 126.356 56.0939C126.011 56.4103 125.494 56.5541 124.861 56.5541H123.884V56.5254Z" fill="black"/>
<path d="M132.537 56.6404C132.48 57.2157 132.279 57.676 131.876 58.0212C131.474 58.3664 130.985 58.5102 130.352 58.5102C129.662 58.5102 129.116 58.2801 128.714 57.8198C128.311 57.3596 128.11 56.698 128.11 55.8925V55.5473C128.11 55.0295 128.196 54.5693 128.397 54.1665C128.599 53.7638 128.857 53.4762 129.174 53.246C129.519 53.0447 129.921 52.9296 130.352 52.9296C130.985 52.9296 131.474 53.1022 131.876 53.4186C132.25 53.7638 132.48 54.2241 132.537 54.8282H131.416C131.416 54.483 131.301 54.2241 131.129 54.0802C130.956 53.9364 130.697 53.8501 130.352 53.8501C129.979 53.8501 129.691 53.9939 129.519 54.2528C129.346 54.5117 129.231 54.9432 129.231 55.4898V55.8925C129.231 56.4678 129.317 56.8993 129.49 57.187C129.662 57.4459 129.95 57.5897 130.324 57.5897C130.669 57.5897 130.927 57.5034 131.1 57.3596C131.272 57.2157 131.359 56.9569 131.387 56.6404H132.509H132.537Z" fill="black"/>
<path d="M137.971 53.9364H136.304V58.4527H135.183V53.9364H133.544V53.0159H137.971V53.9364Z" fill="black"/>
<path d="M140.3 56.0939V57.561H141.249C141.508 57.561 141.709 57.5034 141.881 57.3596C142.025 57.2445 142.111 57.0719 142.111 56.8418C142.111 56.3528 141.853 56.0939 141.335 56.0939H140.3ZM140.3 55.3172H141.134C141.709 55.3172 141.968 55.0871 141.968 54.6556C141.968 54.3967 141.881 54.2241 141.738 54.1378C141.594 54.0227 141.364 53.9652 141.076 53.9652H140.3V55.3172ZM139.179 58.4527V53.0447H141.076C141.738 53.0447 142.226 53.1597 142.571 53.4186C142.916 53.6775 143.089 54.0515 143.089 54.5117C143.089 54.7706 143.031 55.0008 142.888 55.2021C142.744 55.4035 142.571 55.5473 142.313 55.6336C142.6 55.6912 142.801 55.835 142.974 56.0651C143.146 56.2665 143.204 56.5254 143.204 56.8418C143.204 57.3596 143.031 57.7623 142.715 58.0212C142.37 58.2801 141.91 58.4239 141.306 58.4239H139.208L139.179 58.4527Z" fill="black"/>
<path d="M146.481 55.5761L147.459 53.0159H148.666L146.769 57.4746L146.625 57.7623C146.338 58.2513 145.935 58.4814 145.331 58.4814H144.929V57.5609C144.986 57.5609 145.072 57.5609 145.216 57.5609C145.36 57.5609 145.504 57.5609 145.59 57.4746C145.676 57.4171 145.763 57.3308 145.82 57.187L145.964 56.8418L144.066 52.9871H145.274L146.481 55.5473V55.5761Z" fill="black"/>
<path d="M20.6137 12.8872L17.365 7.79561L19.8087 6.21348L23.0575 11.3338L24.3225 10.4996L20.4125 4.40121L15.4387 7.56548L19.3487 13.6927L20.6137 12.8872Z" fill="black"/>
<path d="M27.2838 2.96291C27.6288 2.84785 27.945 2.87661 28.2038 3.02045C28.4625 3.16428 28.6638 3.3944 28.7788 3.7396C28.8938 4.05602 28.865 4.34369 28.7213 4.60258C28.5775 4.83271 28.3188 5.03407 27.945 5.14914L26.68 5.55186L25.99 3.3944L27.2838 2.96291ZM27.83 9.14762L27.0538 6.7025L28.29 6.29978C29.095 6.04088 29.6988 5.63816 30.015 5.0916C30.36 4.54505 30.4175 3.94096 30.1875 3.27934C30.0438 2.81908 29.8138 2.47389 29.4975 2.18623C29.1813 1.89857 28.7788 1.72597 28.3188 1.66844C27.8588 1.61091 27.37 1.66844 26.8525 1.81227L24.15 2.67525L26.3638 9.57911L27.8013 9.11886L27.83 9.14762Z" fill="black"/>
<path d="M34.9888 1.89856C35.2475 1.49584 35.6213 1.26571 36.11 1.23694C36.6275 1.20818 37.0013 1.38077 37.3175 1.75473C37.605 2.12869 37.7775 2.70401 37.835 3.45193V3.79712C37.8925 4.54504 37.8063 5.12036 37.5475 5.55185C37.2888 5.95458 36.9438 6.18471 36.4263 6.21347C35.9088 6.24224 35.5063 6.06964 35.2188 5.66692C34.9313 5.26419 34.7588 4.71764 34.7013 3.96972V3.62453C34.6438 2.87661 34.73 2.30129 34.9888 1.89856ZM33.1775 4.11355C33.235 4.80394 33.3788 5.40802 33.695 5.92581C33.9825 6.4436 34.385 6.84633 34.8738 7.10522C35.3625 7.36412 35.9088 7.47918 36.5125 7.45042C37.1163 7.42165 37.6338 7.24905 38.0938 6.90386C38.5538 6.58743 38.87 6.15594 39.1 5.58062C39.33 5.03407 39.4163 4.40121 39.3588 3.68206V3.36563C39.3013 2.64648 39.1288 2.04239 38.8413 1.5246C38.5538 1.00681 38.1513 0.604088 37.6625 0.345193C37.2313 0.115064 36.7713 0 36.2825 0H36.225C36.225 0 36.0813 0 36.0238 0C35.42 0.0287661 34.9025 0.201363 34.4425 0.546556C33.9825 0.862983 33.6663 1.29447 33.4363 1.8698C33.2063 2.41635 33.12 3.07797 33.1775 3.76836V4.11355Z" fill="black"/>
<path d="M43.47 4.02724C43.585 3.48069 43.8438 3.07796 44.1888 2.81907C44.5338 2.58894 44.9363 2.50264 45.425 2.6177H45.5113L44.735 6.04087H44.6488C44.16 5.89704 43.7863 5.66691 43.585 5.32172C43.3838 4.97652 43.3263 4.51627 43.4413 3.99848L43.47 4.02724ZM46.92 2.9629H47.0063C47.495 3.10673 47.8688 3.33686 48.07 3.71082C48.2713 4.08477 48.3 4.54503 48.185 5.06282C48.07 5.58061 47.84 5.95457 47.495 6.1847C47.15 6.41483 46.7475 6.50113 46.2588 6.38606H46.1725L46.9488 2.9629H46.92ZM42.9525 6.52989C43.355 6.87508 43.815 7.10521 44.39 7.24904H44.4763L44.275 8.16956L45.6838 8.48599L45.885 7.59424C46.805 7.7956 47.61 7.7093 48.2713 7.27781C48.9325 6.87508 49.3638 6.24223 49.565 5.37925C49.7088 4.80393 49.68 4.25737 49.565 3.76835C49.4213 3.25056 49.1338 2.84783 48.76 2.47387C48.3575 2.12868 47.8975 1.89855 47.3513 1.75472H47.265L47.4663 0.805441L46.0575 0.489014L45.8563 1.40953H45.7125C45.1663 1.2657 44.6488 1.2657 44.1313 1.40953C43.6425 1.55336 43.2113 1.84102 42.8663 2.21498C42.5213 2.6177 42.2913 3.07796 42.1475 3.65328C42.0325 4.19984 42.0325 4.74639 42.1763 5.23542C42.32 5.72444 42.6075 6.15593 42.9813 6.50113L42.9525 6.52989Z" fill="black"/>
<path d="M55.2862 10.9023L52.2962 9.34897L53.1875 7.62301L55.7175 8.94625L56.2637 7.91067L53.7337 6.58743L54.51 5.03406L57.5 6.58743L58.075 5.52308L53.7625 3.27933L50.3987 9.72293L54.7112 11.9667L55.2862 10.9023Z" fill="black"/>
<path d="M58.2188 14.8433C58.8513 15.3899 59.5413 15.6775 60.2025 15.6775C60.8925 15.6775 61.4963 15.3899 62.0713 14.8433L60.95 13.8653C60.6338 14.1817 60.3175 14.3543 60.0013 14.3543C59.685 14.3543 59.3688 14.2104 59.0238 13.9228C58.65 13.5776 58.4775 13.2036 58.535 12.7721C58.5925 12.3406 58.88 11.8229 59.3975 11.2475L59.7425 10.8448C60.2313 10.2695 60.6913 9.95306 61.1225 9.838C61.5538 9.72294 61.9275 9.838 62.33 10.1544C62.675 10.4421 62.8763 10.7585 62.905 11.0749C62.9338 11.3914 62.8188 11.7366 62.5313 12.1105L63.6525 13.0886C64.1125 12.4269 64.3138 11.7653 64.1988 11.0749C64.1125 10.4133 63.7388 9.78047 63.1063 9.23391C62.6463 8.83119 62.1575 8.60106 61.6113 8.51476C61.0938 8.42846 60.5475 8.51476 60.0013 8.74489C59.455 8.97502 58.9663 9.37774 58.5063 9.89553L58.2188 10.2407C57.5 11.0749 57.155 11.9092 57.155 12.7146C57.155 13.5488 57.5 14.2392 58.2188 14.8721V14.8433Z" fill="black"/>
<path d="M62.79 18.1226C62.5887 18.9281 62.7325 19.7048 63.2787 20.4527C63.7675 21.1431 64.3425 21.5746 65.0037 21.7472C65.665 21.9198 66.3262 21.8047 67.0162 21.402L66.1537 20.165C65.78 20.3952 65.435 20.4815 65.1187 20.3952C64.8025 20.3376 64.5437 20.1075 64.2562 19.7335C63.9687 19.3021 63.9112 18.8993 64.055 18.4966C64.2275 18.0939 64.63 17.6624 65.2625 17.2309L65.7225 16.9145C66.355 16.483 66.8725 16.2816 67.3037 16.2816C67.735 16.2816 68.1087 16.483 68.3962 16.8857C68.655 17.2597 68.77 17.6049 68.7125 17.8925C68.655 18.2089 68.4537 18.4966 68.1087 18.7843L68.9712 20.0212C69.6037 19.5034 69.9487 18.8993 70.0062 18.2089C70.0925 17.5186 69.8912 16.8569 69.4025 16.1666C69.0575 15.6775 68.6262 15.3036 68.1375 15.1022C67.6487 14.9008 67.1025 14.8433 66.5275 14.9296C65.9525 15.0447 65.3775 15.2748 64.8025 15.6775L64.4287 15.9364C63.5375 16.5693 62.9912 17.2884 62.7612 18.0651L62.79 18.1226Z" fill="black"/>
<path d="M66.4413 25.8895L71.9613 26.9538L67.4475 28.6223L67.965 30.0318L74.75 27.5004L74.2325 26.0908L68.7125 25.0553L73.2263 23.3868L72.7088 21.9773L65.9238 24.4799L66.4413 25.8895Z" fill="black"/>
<path d="M74.7787 34.433C74.8362 34.9508 74.6637 35.3535 74.29 35.6412C73.9162 35.9576 73.37 36.1302 72.5937 36.2165H72.2487C71.5012 36.3316 70.9262 36.2165 70.495 36.0152C70.0637 35.785 69.8337 35.4111 69.805 34.922C69.7475 34.4042 69.92 34.0015 70.2937 33.6851C70.6675 33.3687 71.2425 33.1961 71.9612 33.1098H72.3062C73.0537 32.9947 73.6287 33.1098 74.06 33.3399C74.4625 33.57 74.6925 33.944 74.75 34.433H74.7787ZM72.1625 31.5852H71.8175C71.1275 31.7002 70.5237 31.8728 70.0062 32.1893C69.4887 32.5057 69.115 32.9084 68.885 33.3974C68.655 33.8865 68.54 34.433 68.5975 35.0371C68.655 35.6412 68.8562 36.159 69.1725 36.6192C69.5175 37.0507 69.9487 37.3672 70.5237 37.5685C71.07 37.7699 71.7312 37.8274 72.4212 37.7699H72.7375C73.4562 37.6836 74.06 37.4822 74.5775 37.1658C75.095 36.8494 75.4687 36.4466 75.7275 35.9576C75.9862 35.4686 76.0725 34.922 76.015 34.318C75.9575 33.7139 75.7562 33.1961 75.44 32.7646C75.095 32.3331 74.6637 31.9879 74.0887 31.7865C73.5137 31.5852 72.8812 31.4989 72.1625 31.5852Z" fill="black"/>
<path d="M75.8137 42.8039L76.0437 41.3369L68.9137 40.0999L68.655 41.567L71.7025 42.0848L71.2137 44.9614L68.1662 44.4436L67.9075 45.9107L75.0662 47.1476L75.2962 45.6805L72.4212 45.1627L72.91 42.3149L75.8137 42.8039Z" fill="black"/>
<path d="M68.8563 50.9447L70.955 52.9008L68.1088 52.5844L68.8563 50.9447ZM66.7863 48.9887L67.9363 50.0818L66.8438 52.4694L65.2625 52.2968L64.6013 53.7351L72.335 54.3104L72.91 53.0447L67.4475 47.5504L66.7863 48.9887Z" fill="black"/>
<path d="M64.5725 57.0144C64.3712 56.6404 64.4 56.2952 64.5725 55.9788L64.7163 55.7774L63.7963 55.0008L63.5375 55.2884C63.1638 55.7199 62.9912 56.1514 62.9337 56.5254C62.905 56.9281 63.02 57.3596 63.2788 57.7911C63.5375 58.2513 63.9975 58.7691 64.63 59.3732L66.4987 61.1279L65.2625 62.595L60.6338 58.6828L59.6562 59.8335L65.205 64.5223L68.3388 60.8115L65.8663 58.5678C65.1475 57.9061 64.6875 57.3883 64.4863 57.0144H64.5725Z" fill="black"/>
<path d="M51.8075 65.5291L55.7462 71.6276L57.0112 70.8221L53.0437 64.7237L51.8075 65.5291Z" fill="black"/>
<path d="M57.73 65.788C57.4138 65.9894 57.0975 66.0757 56.81 66.0182C56.5225 65.9894 56.2925 65.8168 56.12 65.5292C55.9188 65.2415 55.8613 64.9251 55.9475 64.6374C56.0338 64.3497 56.235 64.0908 56.5513 63.8607L57.5575 63.1991L58.765 65.0689L57.73 65.7305V65.788ZM55.8613 62.9114C55.1713 63.3717 54.74 63.9182 54.5675 64.5511C54.395 65.184 54.4813 65.788 54.855 66.3921C55.2288 66.9675 55.7463 67.3126 56.4075 67.3702C57.04 67.4565 57.73 67.2551 58.4488 66.7949L59.4263 66.162L60.8638 68.3482L62.1288 67.514L58.1613 61.4444L55.89 62.9402L55.8613 62.9114Z" fill="black"/>
<path d="M49.0762 66.4784C48.1275 66.8236 47.15 67.1401 46.1725 67.3989C45.885 67.4852 45.5975 67.5428 45.2812 67.6003C45.08 67.6578 44.85 67.7154 44.6487 67.7441C44.3037 67.8304 43.93 67.888 43.5562 67.9455C43.4125 67.9455 43.2687 68.003 43.0962 68.0318C42.8375 68.0606 42.6075 68.0893 42.3487 68.1181C42.0325 68.1469 41.745 68.2044 41.4287 68.2332C41.2562 68.2332 41.1125 68.2332 40.94 68.2619C40.5662 68.2907 40.1925 68.3195 39.8475 68.3482C39.7325 68.3482 39.6175 68.3482 39.5312 68.3482C39.1 68.3482 38.6975 68.377 38.2662 68.377C38.2087 68.377 38.1512 68.377 38.065 68.377C37.605 68.377 37.1162 68.377 36.6562 68.3482C36.6275 68.3482 36.5987 68.3482 36.57 68.3482C36.0812 68.3482 35.5637 68.2907 35.075 68.2332C35.075 68.2332 35.0462 68.2332 35.0175 68.2332C34.5287 68.1756 34.0112 68.1181 33.5225 68.0318C33.4937 68.0318 33.465 68.0318 33.4075 68.0318C32.9187 67.9455 32.43 67.8592 31.97 67.7729C31.8837 67.7729 31.7975 67.7441 31.74 67.7154C31.4237 67.6578 31.1075 67.5715 30.7912 67.4852C30.6475 67.4565 30.5325 67.4277 30.3887 67.3989C30.245 67.3702 30.0725 67.3126 29.9287 67.2551C29.8425 67.2551 29.7562 67.1976 29.67 67.1688C29.3825 67.0825 29.0662 66.9962 28.7787 66.9099C28.6062 66.8524 28.4625 66.7949 28.29 66.7373C27.945 66.6223 27.5712 66.4784 27.2262 66.3346C27.0825 66.2771 26.9387 66.2195 26.795 66.162C26.4212 66.0182 26.0475 65.8743 25.7025 65.7017C25.5587 65.6442 25.3862 65.5579 25.2425 65.4716C24.8975 65.299 24.5525 65.1552 24.2075 64.9826C23.9775 64.8675 23.7475 64.7237 23.5175 64.6086C23.2875 64.4936 23.0575 64.3497 22.8275 64.2347C22.4825 64.0333 22.1087 63.8032 21.7637 63.5731C21.6775 63.5155 21.5625 63.458 21.4762 63.4005C21.275 63.2566 21.045 63.1128 20.8437 62.969C20.6137 62.8251 20.3837 62.6525 20.1537 62.5087C20.0387 62.4224 19.9525 62.3361 19.8375 62.2786C19.4925 62.0197 19.1475 61.7608 18.8312 61.4731C18.745 61.4156 18.6587 61.3293 18.5725 61.2718C18.2562 61.0129 17.94 60.7252 17.6237 60.4376C17.5662 60.38 17.5087 60.3225 17.4512 60.2937C17.135 60.0061 16.8187 59.6896 16.5025 59.3732C16.445 59.3157 16.3875 59.2581 16.33 59.1718C16.0425 58.8842 15.755 58.5678 15.4675 58.2513C15.3812 58.165 15.295 58.0787 15.2375 57.9637C14.9787 57.676 14.7487 57.3884 14.5187 57.1007C14.4612 57.0432 14.4325 56.9856 14.375 56.9281C14.2887 56.8418 14.2312 56.7555 14.145 56.6404C13.9725 56.4103 13.7712 56.1802 13.5987 55.95C13.4262 55.7199 13.2825 55.4898 13.11 55.2597C12.995 55.0871 12.88 54.9432 12.765 54.7706C12.5637 54.483 12.3912 54.1665 12.19 53.8789C12.1325 53.7638 12.0462 53.6775 11.9887 53.5625C11.7875 53.2173 11.5862 52.8721 11.385 52.5269C11.3562 52.4406 11.2987 52.383 11.27 52.2967C11.0687 51.9228 10.8962 51.5488 10.695 51.1749C10.6662 51.1173 10.6375 51.0598 10.6087 51.0023C10.4362 50.6283 10.2637 50.2256 10.0912 49.8516C10.0912 49.7941 10.0337 49.7078 10.005 49.6503C9.86125 49.2763 9.7175 48.9024 9.57375 48.5284C9.545 48.4421 9.51625 48.3558 9.4875 48.2695C9.3725 47.9243 9.22875 47.5503 9.1425 47.2052C9.11375 47.0901 9.05625 46.9463 9.0275 46.8312C8.94125 46.5148 8.855 46.1983 8.76875 45.8819C8.71125 45.7093 8.6825 45.5367 8.625 45.3641C8.625 45.3354 8.625 45.2778 8.625 45.2491C8.5675 44.9902 8.51 44.76 8.4525 44.5011C8.395 44.2998 8.36625 44.0984 8.30875 43.8971C8.25125 43.6382 8.2225 43.3793 8.165 43.1204C8.13625 42.8902 8.07875 42.6601 8.05 42.43C8.02125 42.1999 7.9925 41.9697 7.96375 41.7396C7.935 41.4807 7.90625 41.2218 7.8775 40.9341C7.8775 40.7328 7.84875 40.5314 7.82 40.3301C7.82 40.0424 7.7625 39.7547 7.7625 39.4383C7.7625 39.2657 7.7625 39.0931 7.7625 38.9205C7.7625 38.6041 7.7625 38.2877 7.7625 37.9712C7.7625 37.8274 7.7625 37.6548 7.7625 37.511C7.7625 37.1658 7.7625 36.8494 7.7625 36.5042C7.7625 36.3603 7.7625 36.2165 7.7625 36.0727C7.7625 35.7275 7.82 35.3823 7.84875 35.0371C7.84875 34.8933 7.8775 34.7494 7.90625 34.6056C7.935 34.2604 7.9925 33.9152 8.02125 33.57C8.02125 33.4262 8.07875 33.2536 8.1075 33.1098C8.165 32.7933 8.2225 32.4482 8.28 32.1317C8.28 32.0454 8.30875 31.9304 8.3375 31.8441C8.3375 31.7578 8.36625 31.6427 8.395 31.5564C8.4525 31.2687 8.51 30.9811 8.5675 30.7222C8.625 30.4345 8.71125 30.1469 8.7975 29.888C8.855 29.7154 8.88375 29.514 8.94125 29.3414C9.05625 28.9387 9.17125 28.5647 9.315 28.162C9.315 28.1045 9.3725 28.0182 9.3725 27.9606C9.7175 27.0114 10.0912 26.0621 10.5225 25.1128C10.7237 24.6525 10.9537 24.1923 11.1837 23.7608C11.385 23.3868 11.5575 23.0416 11.7875 22.6964C11.8737 22.5526 11.96 22.4088 12.0462 22.265C12.19 22.0348 12.3337 21.8047 12.4775 21.5746C12.7075 21.2006 12.9662 20.8267 13.225 20.4527C13.3112 20.3089 13.4262 20.165 13.5125 20.0212C13.6275 19.8774 13.7425 19.7048 13.8575 19.5609C14.0875 19.2445 14.3175 18.9569 14.5762 18.6404C14.8062 18.3815 15.0362 18.0939 15.2375 17.835C15.985 16.972 16.7612 16.1665 17.595 15.4186L12.3912 9.75171C11.0975 10.9311 9.89 12.1968 8.74 13.5776C8.6825 13.6351 8.65375 13.7214 8.59625 13.779C8.28 14.1529 7.9925 14.5269 7.705 14.9296C7.56125 15.131 7.4175 15.3036 7.27375 15.5049C7.0725 15.7926 6.87125 16.0802 6.67 16.3679C6.555 16.5405 6.41125 16.7419 6.29625 16.9145C6.29625 16.9145 6.2675 16.972 6.23875 17.0008C6.18125 17.0871 6.12375 17.2021 6.06625 17.2884C6.00875 17.4035 5.9225 17.4898 5.865 17.6048C5.8075 17.7199 5.72125 17.835 5.66375 17.95C5.52 18.1802 5.37625 18.4103 5.26125 18.6404C5.20375 18.7267 5.175 18.813 5.1175 18.8706C5.03125 19.0144 4.945 19.1582 4.85875 19.302C4.6575 19.6472 4.485 19.9924 4.3125 20.3376C4.255 20.4239 4.22625 20.539 4.16875 20.6253C3.93875 21.0855 3.70875 21.5746 3.47875 22.0348C3.42125 22.1787 3.36375 22.3225 3.2775 22.4663C3.07625 22.8978 2.90375 23.3293 2.73125 23.7608C2.645 23.9622 2.5875 24.1635 2.50125 24.3649C2.3575 24.7388 2.21375 25.1128 2.09875 25.4868C2.0125 25.7457 1.92625 26.0333 1.84 26.2922C1.725 26.6086 1.63875 26.9251 1.5525 27.2415C1.46625 27.5579 1.38 27.9031 1.29375 28.2195C1.23625 28.4784 1.15 28.7373 1.0925 28.9962C1.0925 29.0538 1.06375 29.14 1.035 29.1976C0.977498 29.4852 0.919998 29.8017 0.833748 30.0893C0.776248 30.2907 0.747497 30.5208 0.689998 30.7222C0.689998 30.8372 0.632498 30.9523 0.632498 31.0674C0.603748 31.24 0.574998 31.4126 0.546248 31.5852C0.546248 31.729 0.488748 31.9016 0.459998 32.0454C0.459998 32.1893 0.402498 32.3619 0.373748 32.5057C0.316248 32.9947 0.258748 33.5125 0.201248 34.0015C0.201248 34.1166 0.201248 34.2029 0.172498 34.3179C0.114998 34.8357 0.0862476 35.3823 0.0574976 35.9001C0.0574976 35.9864 0.0574976 36.0727 0.0574976 36.159C0.0574976 36.6768 0.0287476 37.2233 0.0287476 37.7411C0.0287476 37.8274 0.0287476 37.9137 0.0287476 38C0.0287476 38.5178 0.0287476 39.0068 0.0574976 39.5246C0.0574976 39.6397 0.0574976 39.7547 0.0574976 39.8698C0.0574976 40.3301 0.114998 40.8191 0.143748 41.2793C0.143748 41.4519 0.143748 41.5958 0.172498 41.7684C0.201248 42.1711 0.258748 42.6026 0.316248 43.0053C0.344998 43.2354 0.373748 43.4368 0.402498 43.6669C0.459998 44.0121 0.517498 44.3573 0.574998 44.7025C0.632498 44.9902 0.661248 45.2491 0.718748 45.5367C0.776248 45.8244 0.833748 46.0833 0.891248 46.3709C0.977498 46.7161 1.035 47.0613 1.12125 47.3777C1.12125 47.4353 1.15 47.5216 1.17875 47.5791C1.2075 47.7229 1.265 47.838 1.29375 47.9818C1.29375 47.9818 1.29375 47.9818 1.29375 48.0106C1.40875 48.3846 1.495 48.7873 1.61 49.1612C1.6675 49.3626 1.725 49.5352 1.7825 49.7366C1.8975 50.1393 2.04125 50.542 2.185 50.9447C2.2425 51.1173 2.3 51.2899 2.38625 51.4625C2.53 51.8653 2.7025 52.268 2.84625 52.6707C2.90375 52.8433 2.99 53.0159 3.07625 53.1597C3.24875 53.5625 3.42125 53.9364 3.59375 54.3391C3.68 54.5117 3.76625 54.6843 3.8525 54.8569C4.025 55.2309 4.22625 55.6049 4.4275 55.9788C4.5425 56.1802 4.6575 56.3815 4.74375 56.5829C4.91625 56.9281 5.1175 57.2445 5.31875 57.5897C5.4625 57.8198 5.60625 58.05 5.75 58.2801C5.9225 58.5678 6.095 58.8554 6.29625 59.1431C6.46875 59.4307 6.67 59.6896 6.87125 59.9485C7.04375 60.1787 7.1875 60.4088 7.36 60.6389C7.59 60.9553 7.84875 61.2718 8.07875 61.5882C8.2225 61.7608 8.3375 61.9334 8.48125 62.0772C8.53875 62.1348 8.59625 62.2211 8.65375 62.3074C8.7975 62.4799 8.94125 62.6525 9.085 62.8251C9.22875 62.969 9.34375 63.1416 9.4875 63.2854C9.545 63.3429 9.6025 63.4292 9.66 63.4868C9.74625 63.5731 9.80375 63.6594 9.89 63.7457C9.9475 63.8032 9.97625 63.8607 10.0337 63.8895C11.3562 65.3278 12.8225 66.6798 14.4037 67.9455C14.6337 68.1181 14.8637 68.2907 15.0937 68.4921C15.2662 68.6359 15.4387 68.751 15.64 68.8948C15.64 68.8948 15.6975 68.9235 15.7262 68.9523C16.1287 69.24 16.5312 69.5276 16.9337 69.7865C16.9912 69.8441 17.0487 69.8728 17.135 69.9304C19.5212 71.5125 22.0512 72.807 24.6675 73.785C24.7537 73.785 24.8112 73.8426 24.8975 73.8713C25.1275 73.9576 25.3575 74.0439 25.5875 74.1302C25.76 74.1877 25.9325 74.2453 26.105 74.3028C26.2487 74.3603 26.3637 74.3891 26.5075 74.4466C26.7087 74.5042 26.91 74.5617 27.14 74.648C27.1975 74.648 27.255 74.6768 27.3125 74.7055C27.37 74.7055 27.3987 74.7055 27.4562 74.7343C27.6575 74.7918 27.8587 74.8494 28.06 74.9069C28.1462 74.9069 28.2612 74.9644 28.3475 74.9932C28.5487 75.0507 28.75 75.1083 28.9512 75.1658C29.095 75.1946 29.2387 75.2233 29.3825 75.2809C29.555 75.3096 29.6987 75.3671 29.8712 75.3959C30.0437 75.4247 30.245 75.4822 30.4175 75.511C30.5325 75.511 30.6475 75.5685 30.7625 75.5685C30.9925 75.6261 31.2225 75.6548 31.4525 75.7123C31.5387 75.7123 31.5962 75.7123 31.6825 75.7411C31.9412 75.7986 32.2287 75.8274 32.4875 75.8849C32.5162 75.8849 32.545 75.8849 32.5737 75.8849C33.2925 76 34.0112 76.0863 34.73 76.1438H41.6875C42.895 76.0288 44.1312 75.8562 45.3387 75.6261H45.3962C45.6837 75.5685 45.9712 75.511 46.2587 75.4535C46.3162 75.4535 46.4025 75.4247 46.46 75.3959C46.69 75.3384 46.9487 75.2809 47.1787 75.2233C47.2937 75.2233 47.4087 75.1658 47.5238 75.137C47.725 75.0795 47.8975 75.0507 48.0987 74.9932C48.1275 74.9932 48.185 74.9932 48.2137 74.9644C49.3925 74.648 50.5712 74.274 51.7212 73.8426L49.0187 66.6223L49.0762 66.4784Z" fill="black"/>
</g>
<defs>
<clipPath id="clip0_40_460">
<rect width="207" height="76" fill="white"/>
</clipPath>
</defs>
</svg>
