<svg width="36" height="36" viewBox="0 0 36 36" fill="none" xmlns="http://www.w3.org/2000/svg">
<path d="M35.2026 0.82469C34.95 0.571556 34.6499 0.370729 34.3196 0.233704C33.9893 0.0966801 33.6352 0.0261489 33.2776 0.0261489C32.9199 0.0261489 32.5658 0.0966801 32.2355 0.233704C31.9052 0.370729 31.6051 0.571556 31.3525 0.82469L18 14.1499L4.64749 0.797383C4.39469 0.544581 4.09457 0.344048 3.76427 0.207233C3.43397 0.0704172 3.07995 2.6637e-09 2.72244 0C2.36492 -2.6637e-09 2.01091 0.0704172 1.68061 0.207233C1.3503 0.344048 1.05018 0.544581 0.797383 0.797383C0.544581 1.05018 0.344048 1.3503 0.207233 1.68061C0.0704172 2.01091 -2.6637e-09 2.36492 0 2.72244C2.6637e-09 3.07995 0.0704172 3.43397 0.207233 3.76427C0.344048 4.09457 0.544581 4.39469 0.797383 4.64749L14.1499 18L0.797383 31.3525C0.544581 31.6053 0.344048 31.9054 0.207233 32.2357C0.0704172 32.566 0 32.92 0 33.2776C0 33.6351 0.0704172 33.9891 0.207233 34.3194C0.344048 34.6497 0.544581 34.9498 0.797383 35.2026C1.05018 35.4554 1.3503 35.656 1.68061 35.7928C2.01091 35.9296 2.36492 36 2.72244 36C3.07995 36 3.43397 35.9296 3.76427 35.7928C4.09457 35.656 4.39469 35.4554 4.64749 35.2026L18 21.8501L31.3525 35.2026C31.6053 35.4554 31.9054 35.656 32.2357 35.7928C32.566 35.9296 32.92 36 33.2776 36C33.6351 36 33.9891 35.9296 34.3194 35.7928C34.6497 35.656 34.9498 35.4554 35.2026 35.2026C35.4554 34.9498 35.656 34.6497 35.7928 34.3194C35.9296 33.9891 36 33.6351 36 33.2776C36 32.92 35.9296 32.566 35.7928 32.2357C35.656 31.9054 35.4554 31.6053 35.2026 31.3525L21.8501 18L35.2026 4.64749C36.2402 3.60988 36.2402 1.86231 35.2026 0.82469Z" fill="black"/>
</svg>
