<svg width="18" height="22" viewBox="0 0 18 22" fill="none" xmlns="http://www.w3.org/2000/svg">
<path d="M9 13C11.206 13 13 11.206 13 9C13 6.794 11.206 5 9 5C6.794 5 5 6.794 5 9C5 11.206 6.794 13 9 13ZM9 7C10.103 7 11 7.897 11 9C11 10.103 10.103 11 9 11C7.897 11 7 10.103 7 9C7 7.897 7.897 7 9 7Z" fill="black"/>
<path d="M8.42 20.814C8.58924 20.9349 8.79202 20.9998 9 20.9998C9.20797 20.9998 9.41075 20.9349 9.58 20.814C9.884 20.599 17.029 15.44 17 9C17 4.589 13.411 1 9 1C4.589 1 0.999996 4.589 0.999996 8.995C0.970996 15.44 8.116 20.599 8.42 20.814ZM9 3C12.309 3 15 5.691 15 9.005C15.021 13.443 10.612 17.428 9 18.735C7.389 17.427 2.979 13.441 3 9C3 5.691 5.691 3 9 3Z" fill="black"/>
</svg>
