<svg width="24" height="20" viewBox="0 0 24 20" fill="none" xmlns="http://www.w3.org/2000/svg">
<path d="M2.4 19.2C1.74 19.2 1.1752 18.9652 0.7056 18.4956C0.236 18.026 0.0008 17.4608 0 16.8V2.4C0 1.74 0.2352 1.1752 0.7056 0.7056C1.176 0.236 1.7408 0.0008 2.4 0H21.6C22.26 0 22.8252 0.2352 23.2956 0.7056C23.766 1.176 24.0008 1.7408 24 2.4V16.8C24 17.46 23.7652 18.0252 23.2956 18.4956C22.826 18.966 22.2608 19.2008 21.6 19.2H2.4ZM12 10.8L2.4 4.8V16.8H21.6V4.8L12 10.8ZM12 8.4L21.6 2.4H2.4L12 8.4ZM2.4 4.8V2.4V16.8V4.8Z" fill="black"/>
</svg>
