<svg width="24" height="24" viewBox="0 0 24 24" fill="none" xmlns="http://www.w3.org/2000/svg">
<path fill-rule="evenodd" clip-rule="evenodd" d="M3.09045 9.31918C5.54427 14.6611 9.90413 18.8944 15.316 21.1898L15.3324 21.1967L16.3793 21.6626C17.026 21.9509 17.7521 22.008 18.4359 21.8241C19.1196 21.6401 19.7192 21.2265 20.1339 20.6527L21.8796 18.2369C21.9309 18.1658 21.953 18.0776 21.9413 17.9907C21.9295 17.9038 21.8849 17.8246 21.8166 17.7696L18.7691 15.31C18.7331 15.281 18.6917 15.2596 18.6472 15.247C18.6027 15.2344 18.5562 15.231 18.5104 15.2369C18.4645 15.2428 18.4204 15.2579 18.3805 15.2813C18.3407 15.3047 18.306 15.3359 18.2785 15.373L17.0919 16.9735C16.9521 17.1623 16.7518 17.2976 16.5244 17.3566C16.297 17.4157 16.0562 17.3951 15.8422 17.2983C11.7876 15.4615 8.53925 12.2131 6.70248 8.15856C6.60561 7.94452 6.58501 7.70374 6.6441 7.47635C6.70319 7.24896 6.83841 7.04868 7.02724 6.90888L8.62634 5.72085C8.6635 5.69339 8.69472 5.65869 8.71812 5.61885C8.74152 5.57901 8.75662 5.53485 8.7625 5.48902C8.76839 5.44319 8.76495 5.39665 8.75238 5.35218C8.73981 5.30772 8.71838 5.26626 8.68937 5.2303L6.23111 2.18282C6.17611 2.11448 6.09698 2.06985 6.01005 2.05812C5.92311 2.0464 5.83499 2.06847 5.76385 2.11978L3.33436 3.87373C2.75665 4.29044 2.34106 4.89433 2.1582 5.58278C1.97535 6.27122 2.03652 7.00174 2.33132 7.65019L3.09045 9.31918ZM14.5048 23.0781C8.62511 20.5814 3.88877 15.9805 1.22277 10.1756L1.22003 10.1729L0.460903 8.50113C-0.0304484 7.42059 -0.132549 6.20325 0.171948 5.05596C0.476444 3.90866 1.16876 2.90217 2.13126 2.20748L4.56075 0.453535C5.05834 0.0944159 5.67466 -0.0602814 6.28286 0.0212874C6.89105 0.102856 7.44484 0.414484 7.83021 0.892022L10.2898 3.94087C10.4928 4.19242 10.6429 4.4824 10.7309 4.7934C10.819 5.1044 10.8433 5.42999 10.8023 5.75061C10.7614 6.07123 10.656 6.38026 10.4926 6.65913C10.3292 6.938 10.1111 7.18096 9.85136 7.3734L8.93328 8.05305C10.4855 11.0626 12.9367 13.5139 15.9463 15.0661L16.6273 14.148C16.8198 13.8885 17.0627 13.6706 17.3414 13.5073C17.6202 13.344 17.9291 13.2387 18.2495 13.1978C18.57 13.1568 18.8954 13.181 19.2062 13.269C19.5171 13.3569 19.807 13.5068 20.0585 13.7095L23.1074 16.1692C23.5853 16.5546 23.8972 17.1086 23.9787 17.7172C24.0603 18.3257 23.9054 18.9423 23.5458 19.44L21.8001 21.8572C21.1091 22.8135 20.11 23.5029 18.9707 23.8096C17.8313 24.1163 16.6212 24.0215 15.5435 23.5412L14.5048 23.0781Z" fill="black"/>
</svg>
