<svg width="41" height="40" viewBox="0 0 41 40" fill="none" xmlns="http://www.w3.org/2000/svg">
<path d="M38.507 38L26.338 26M2 16C2 17.8385 2.36722 19.659 3.0807 21.3576C3.79417 23.0561 4.83993 24.5995 6.15826 25.8995C7.47659 27.1995 9.04167 28.2307 10.7642 28.9343C12.4866 29.6379 14.3328 30 16.1972 30C18.0616 30 19.9077 29.6379 21.6302 28.9343C23.3527 28.2307 24.9178 27.1995 26.2361 25.8995C27.5544 24.5995 28.6002 23.0561 29.3137 21.3576C30.0271 19.659 30.3944 17.8385 30.3944 16C30.3944 14.1615 30.0271 12.341 29.3137 10.6424C28.6002 8.94387 27.5544 7.40053 26.2361 6.1005C24.9178 4.80048 23.3527 3.76925 21.6302 3.06569C19.9077 2.36212 18.0616 2 16.1972 2C14.3328 2 12.4866 2.36212 10.7642 3.06569C9.04167 3.76925 7.47659 4.80048 6.15826 6.1005C4.83993 7.40053 3.79417 8.94387 3.0807 10.6424C2.36722 12.341 2 14.1615 2 16Z" stroke="#9EE378" stroke-width="4" stroke-linecap="round" stroke-linejoin="round"/>
</svg>
