<svg width="41" height="40" viewBox="0 0 41 40" fill="none" xmlns="http://www.w3.org/2000/svg">
<path d="M38.8415 38L26.6725 26M2.33447 16C2.33447 17.8385 2.70169 19.659 3.41517 21.3576C4.12864 23.0561 5.1744 24.5995 6.49273 25.8995C7.81106 27.1995 9.37615 28.2307 11.0986 28.9343C12.8211 29.6379 14.6673 30 16.5317 30C18.3961 30 20.2422 29.6379 21.9647 28.9343C23.6872 28.2307 25.2522 27.1995 26.5706 25.8995C27.8889 24.5995 28.9347 23.0561 29.6481 21.3576C30.3616 19.659 30.7288 17.8385 30.7288 16C30.7288 14.1615 30.3616 12.341 29.6481 10.6424C28.9347 8.94387 27.8889 7.40053 26.5706 6.1005C25.2522 4.80048 23.6872 3.76925 21.9647 3.06569C20.2422 2.36212 18.3961 2 16.5317 2C14.6673 2 12.8211 2.36212 11.0986 3.06569C9.37615 3.76925 7.81106 4.80048 6.49273 6.1005C5.1744 7.40053 4.12864 8.94387 3.41517 10.6424C2.70169 12.341 2.33447 14.1615 2.33447 16Z" stroke="black" stroke-width="4" stroke-linecap="round" stroke-linejoin="round"/>
</svg>
